<mxfile host="65bd71144e">
    <diagram id="9QqsdRlVVS33YSGkZiDR" name="第 1 页">
        <mxGraphModel dx="1536" dy="720" grid="1" gridSize="10" guides="1" tooltips="1" connect="1" arrows="1" fold="1" page="1" pageScale="1" pageWidth="827" pageHeight="1169" math="0" shadow="0">
            <root>
                <mxCell id="0"/>
                <mxCell id="1" parent="0"/>
                <mxCell id="3" value="" style="shape=image;verticalLabelPosition=bottom;labelBackgroundColor=default;verticalAlign=top;aspect=fixed;imageAspect=0;image=data:image/png,iVBORw0KGgoAAAANSUhEUgAAAqsAAAG2CAYAAABYu88pAAAgAElEQVR4nOzde3RUdZ73+3fPsRUqFSAhSSmBhFTCzdCBxJaLLSY0lyY9PZ6ZA0zbtDOj9qByFs7yMmi3LjzrdJa0ytPa69H1eJtW5xnb1gd8Zo6nl9gqA2m7G9E2QFoahZCYQNAkJFFSSZDmOZ4/6pJdlV1Ve9d1J3xea7G0du367V/dUp/67e/vV1+ZO//rXyIiIiIi4kB/ke0OiIiIiIhEo7AqIiIiIo71FxdddFG2+yAiIiIiYkojqxlQu6I+210QERERGZO+Mn/hki/Pnz+f7X6Me7Ur6mncvSsl7UQTrf1EwrLVvibSHxERERGrVAOQYrHCm9VgF22/4D5mITBeII12GyuB0mp/jO1pNFlERERSIc1h1UPlihpo3sXhnuh7FXytnkqaaPxjV3q7Y8pNyZJllOUEL/to2/c2HUPhe7nKlnGl1x26PNT6Nu+1+UxbtDuiGBnsIoNrOkYo7bSbif6IiIiImElrWHWVzaZg8CjvxQiquMopK/LRti8bQRXAR8c7u+gAKKyhtirHdK+htrdpbINgAHeZ7BMZ5OJdjrbNqkRuawzGsUJyqtoUERERSUYaw6qbAo+boa4uhmLs5fJMwzV4itOxdhojIsNe4+5dcQNlNkYpEykjsNKeygBEREQk1dK3GkDhbMpyumiLcqrcz0OZ183p48djBloRERERuTClbWS14FIPdDdxOtZOhcUU0BWznjWuwhpqqzyhi6NrSf2n7QsMW07HqaFNheAoYypPradqFDaRUc9Y/VEZgIiIiKRLesKqq5yyIjjdHKsO1U1JuYVAG+swgUlPxvDpKquhxNUUmCDlpmRJMV27d3HYeJuqZZSYTKJKJSslAPFuD+mZ0JTMagKR/dHkKxEREUmntJQB+OtQj9IWc2KVB0+Oj7bjCU6scpVT6XUz1Pp22CjpUFuTIYT66HgnPAwPdZ1iCDe55vOoxoxgMNRIpoiIiIxnaRhZ9dehDrXGnlhVUD4b1+DRxCdW5UzGhY+2rlg1sYwqEwhKx6CqWXCM3BZvzdJ4ou1nZ0QzlQE31v3TKKuIiIgkK/VhNViHGmdilacITjeneWJVIKiG1bG6yrly6ey0HC5WODOOhCYb4lJRXpBsO+lqT0RERMQo5WUA/olVnZYmVnUlM8lp8PO4p/Nd7hwg3ooE6WcMcYmcuq9dUZ+y0dBo7dhpP5X9EREREYkltSOrlhb490+sGmp9O+GJVQAMHaetezaVEZOlXGU1FHT561aHfINADi4X/vP+gVHV4MVMMBttjDfCGutUerzbxdo/1m1j9Umn9kVERCRbUhpWLS3wH5hY1RWv1tSC03/cxXtly7hyaT1lgW1DrW/zXvD4PU0c7q6nMnS9j7Z9TeQurTG0Mnppq7Lg/t0jPwFb8LV6KosMO3mXUesF6OLw7tErGsRbbipWOIx2Xap+7crucWP1x+w4kbcVERERSdRX5i9c8uX58+dT0FTgZ0hHrXMaruBr9VTmHOW9d8bnDwHYXRPVagBNZCTW7iisiIiIiNOkLqwW1lBbheko4wh/oCUDi/KLiIiIyNiXwpFVEREREZHUSsuPAoiIiIiIpILCqoiIiIg4lsKqiIiIiDiWwqqIiIiIOFbqf25VRERELlg3XL/O0n7Pv7AzzT2R8UJhVURERFLqX/7HL2Ne/49/+70M9UTGA5UBiIiIiIhjKayKiIiIiGOpDCBkHcX33EKJG/reXMVHv8l2f+SCt24Bt68oGrl88hA/e6A7Yqci1j6xgBmhy928uekQhzPTQwuupfjhOqaGLg/T+cx99B7LYpfiCvbZiX39M889e4jLP1rA4oe+avvWV9dezm0LzvKr/9rKv8Xbeb6Xl785Bc6c4rHnP+W3CfVXxqRr+th/2xe8sf4ytqaqzav7eX9TB5OAM02VPHEiVQ3LhSCFYXUk7EXKbvgL9Kt/F/uefiRbnRgDapi69XqK+/fS/PiryTW1/C6q6vMd+EGfQYvLuPGGCiaHNiQQInce4mc7AXJYvv0qFpju1M0rm94EoGjTVWyoSrjHaVDD1K11TO1IwWsqFWZtpGLjPIZ33Unnnmx3JjEN2w+xBC8PRwuq8728/E2ihtGyvAlwpo+2tPZytL/76xq+UwJ0tPLd//gsw0cX236Tzxt/9QfW7QBSElgHeX1TBzRVMuun/tjxj3+bdKNyAUn9yOqJsRoKd9L50E46s90NGfP8oTGHE7vf5LnQZNci1m4vo2dLG5Fjo+PWrCvIyx2m8yUHBFVbXqXz7lcd97fgxnuOs25mMTvX5/NclH2unhorjE6geArw2Vlro6QftPLdDxLsrFHRpSyfcooDHdOonjKBq0GjtGPA1i0LmP7sIdZtz2XrFpNRKDuu91HOpez4qU7mSmJUsyqSSovL+MuqHD5v/j2vhK3K0s0rF1JQBZg+CVe2+zBeXNPHrV/v5/ivYo1yTeDqsgkxwugE8ibBxy2ZHNmcwA+/PY2eP3zKb/vPZvC4kryvcuPzXs7M/JBf/UO2+yIXugx/zTE/JZ9/85vMyTvIwYe2MBy8zC72fVjJ0lUlgb18dDz/N3Qej2jymp8b9oHhg09x8JWdUL6dhTcsZGLwCnc9SxvqQ/uNlCZEli9EOQ4wce2/s3Ch4RvmCZP7YbXfsczaSMXGmfQ/8wpcdz3FuYHtEadTL77uAebO+pgPG7ooNNQFDjW9QMtLTSPtLb+LqvrikcsDR/iw4RnOhY41byRU5NZR9XBdaNfesFOmgVKBXEyvd29+BO/IU0HxxkcIHTV4zEBfekedivXXCU4M9n35XVTVQ+vdx5gc676ZHHd023GsW8DtK+DN3bBqRRH+U/afMPeJBcxgkEPP/549+wO1oSZ1o5X3rWLVlBZe3NIGNZcxmW7efGIw7mGDI7AhPn8bF0SgNT0lH/EasPg+8It8bXbSevdP8RF4n9SE/hLgqn+EqfWj9xtdX2u8LtaxzN8necdeoIO1hmNHay++G5f2M2nAy5P/anJlsLY0aJKXl/9p5OLH/9nEPR8ARRMo5CxHuyfwwxsup3pSYIewU/Ph1w0e+hM3NUYJmZHHNR4rtM80qid9xq8+AGqBSS7KMI6sTuGhf/LCfzZxD8b2znLgpT/xoOHNEColMBovZQVFl/LsddPICdtofAxS/DhZee4gUA7QyrraPm781+gj+iLp5twx+Rn1LM07yMGtP2A4GCjXbacvEGhhJDwaa2Inrv05xeU76Ty+hYNbIX7NquH0/zU/Z+mqfNPu5N/8JnNmdPDR1r+hD4A7mdNQz9J7LguFbKv9tmYixRuvZ6jpBZpDH9x1VFx3Mjys5c5j7sPz6N11J817CIS8tUx9v4neY8EPauh85s5A/aj/g3Tuw3f5PziPPUPL3SPbo9esBj7IO/bS3BC4fvldVNU/wkSPP1z4Hr+T5tD2KDWre/bQefX1FFdeS+cew3GWz2IqnbSGBdFivA8XR9y36ynuagoEA0Of7w60NWsjFRsfoRi7dYlFrFrcwoubPmHZExUs2l7Bx8//nr51V7FgZRF79nfzdvMgG6ouo5JuQ+1pEXOnw4nd/pBZmZ8Dvk/oiXe4dQv4Sw7xs03BUOsPwxvuGzSZRDWWRAa+iC8ttutX/e+D8NdAHcXLXx0VcqcOHOHDuwNfwriW4s3X4nv8Vc69dB/NL2GhZnXk9H/wfRP1/sV4HwS5aq5nbkfwtem/nXfztQnU7/6Za+b0Q6/HPCwET9cHAk+PWegAKHKRA8z+9uX0/KHJf5v5Xl7+5jR+WPQZD3bD1bXT4LUmvtsdCD1lU7i6cfTkKv9ELTjwUlNYUAo3gR9+fQqDh/7kr5/tPcttTKDY/30w0Cd/gO6puJyXp/Tx2H9t5bfBwHzVFPiPzwgGtZlnTvHYfw32xb+tcByM1vofywl8/J9N3PSBcdtZOtPwOFl77kZs/aCYdd/5Am9q77aILakvA5hRz9KGNw3/fo55/IvDd9AQAnfS1+IDd/7ISGn5duYsdDN88KmwyVvDr/zA3iimFeXbKZkBfW/+IBBUAR7hozc7wF1BfrmNftsQNop47Bk+7QDXrCu4OGyvYTqfMXz4njzDEBOZMB3gWgprJjLU9IohNDbR+9IRhihm8nLrfbn4usX+MGn8oN3zU1pN+xRLEwPHhqFkMVNnBbfVMPXqYug4NmrUKWzEas8eOgdgauW1/svLl1OcG9GnwOMU2seGE/uDo5o5TP6shT37w6/vbvqEzyli0aaR8Y+iTRXMoJsP7f4Qy85DPBc2+trNhyeBKTkURbtNWhXydN1yXjf9t5gHLZ/Pf5XOu++k+e47ad7VSfD12RzclsBEq/DXwDF6gYmekSTp3lznf20GzxYE+5GGSV223gdhwfxVPu8A8jw23itBX1CYC8c/iFM3WOQih8/4IEqd6d9VTAEmQNufzMMs8NvGVksBJjhR67ex9g2Mqu4Jjsx2DzHIBPKML/AiFzlMYOaUvqgrDvzdXwcCmPH6ogkUAj29YzysFl3KTYGganxO/I/v0EjtcQofJ0vPnVHbJZyhk+okSgG2Xf4ptLu5N/Em5AI3didYFeczER8dBzPwc23F+Uykg47IFQ1+c5i+VfW4i4FUB2RguCv8dPe508NQMomLwfCh3McXxtHL0EgpMMvDRIbpfz+8HY69T//APPI8NUDEdVFcXDDRNEz6DndCfWSfYjv30n56a+rIu6KG3mNNMSbiDHP2pPFyE1/0Xz/yge/JBybifdjk9TbgsdUnGKTPsJTK530mp/H3t/HuygpWeYsooo1ucqj05vB5cyJLRQVm+Efmj0TOEadEDzfvHYtT5Gu4JA/T12Y6pPJ9YNk15/yBI85uliZXnTnFs4bT+ldPnQAYRvAi9h9s+8w0GP1by2d855vTuO2fpnGb6an4iFHVWH3mLAdeMwawszz4fPDv0hTml8DgofB+XD0vnxw+Y08qJoBlkfn9GD0RLpWPU/znLnW2bTvE+lI4vmsBs15I22HkAuDcMgAxN3Am9R+GGfcqn3fUMXXWFVxME1wxE1fHflqsLnPV38U5CIxQJV4HmIjDH3WzasVlVC5uo5siZrq7edcwQtrTNwjTJ1EIMWpPg0E1fDkrf+1revsvY9BvLqbntng7WZtcFRlmoi5lVTSF2ZNijFwGSw/me3n5m/4a2bD61vnT/HWvCy7n5cg11wLBa+T4p6KP8gXrbI8Y+xG4r1lYgivVyvImQMep8EAfeOw+/sNn4ful6nGK99yZyqMngQf73nsXcC/+0HrsyRIevDWPn9tvRmQMh9XOPoYpSduo5uhjLaTwGugzjq5eU0k+PjoytMbNxQUTQ0HNkmNdDDNvZAQzaNYV5OWOHrmN5dzpYaiZhZvwwT93ZTEMHLEdoH2/PsLQxpnkzqqBWVhc3sg/ijZ0zD/ceq6rD8jnklngy9R6rjtbOLT4KmbW5FDEZRAxqtrd9AmfV1WwaFMOh6NOssoh3w2fN7c4aPH+Qp6um0/kvAy/IQ6+u58fDmW4S5aEj7an+4tcqt8H1lxCzwAsme8DopUCBMJoW5TAYXraPMboaZGLHM5yNN6p4kDwubr2cm4L1bdO4aFvTjEJQIEay7xgWLW5lFbA1bVefxDusHe7scE/Ig1n6e8e2ZaWx8n0uTNR9gWTcHEyibXS7/3TpayvP0d5/F1FTGV46aqdDPcDeZeFajj9E5cSaOr4FjpOQP6qf6fY8A7wT7AyOeaMysRqZwGO76fHB/mrjPW3dzJnVQmceDuxGtmKDdyzbTsN2+5nfUX83S++7gG8JcN0/tpOHZ6/Ts5Vsza8PvS6ebgGjtATdta3iS/6gZJZph+H597/mCGK8W421IIuvwtvCfT+9pnwD+lA3WzeFaYzVPyOvU//gH/yTDEfM2AhbLo3X09xbiefBut49+yhc2AixRvvivoRblR763Yatm2n4dYVFvaOZpDDrYNMrvIvwP9xU0Qg3d/GuydhctVVrF1nvMK/zmpRoI0+H0zOH6l9rbxvFaumJ9GtpPnLANaY/ktDUD3WxTDG2tPRE7Os8v36CEO585hrfG0GJliZHTOReuYgW++DlPkqv/koD2YO0BB1n7P0n4GcvAnmV5vVs8YbPQ2ZwA9v8PJ3Ma43jupeXTuNmRhqVSMF1loNBey4k6QmMHte4H7N93LbAv//m94u9Hd1M7VxWo3njspAzXZlYdR91pYu9u+zqJS10XZylbIzVu13SX7gsfWH+dmffUb4X5U0PE6G28QekYeG+Z0wcAmtcY4ukk4ZH1nte3oXfQ31LGzw/+rO8MGnONj7fRZaCGyj21rFwbX/zsIb3gyNCA0ffIqDxyP3e4qOe25hTuCYYFy6yj+r3xhkS4Lthepv/SsGDN/8ZlgbwwefYt8rCdbMTs+PG7CmRl1ixzrf43fy4XUPMNfCjGzf4y/QufX6sBrQ0OSWY8/Qcrc/UIwsbTVsWGXA4NgztOzyz9yvqrnev824XBYATfT+djnF9cUxPuQnjl7+6u6INhqAiD6H9TukgqI804PY1v1ECyeeWMCMk6MnYQEcfuBNDq9bwO0rVnF7KBf7T/n7B0sG2bOzhZk3LOD2JwJXnzzEi80VbDBMuR21tJU7uH9wOS1Mfikrh1VPrGIV8Hnz7yMmcTnJq3TummV4jQzT+cwLdF53PbafJtPXpv/9MuqYz3iYuHH0fj4YvYwbxaHXVWiyo533QQo9ty+PW7/eyup7Cthq+utVZ3nwtVM8e51h2SrDZBvTetZYo6cf9PHxN71UX1fDy/iXNXoQiFzaKmjw0J/4buPZ0IShwUNmv6B1ls7PoDpY6jI/n5mc5cCRGGGq+1OePZTPbcFygjOneOylIW66Lj/ilHdASxf9gJtSlqyvoHFHS/S2Y3LhyYm/V4nbwsxDV27Uv/X/9h+tzP8nL9/5pxq+Q+B0fO80Xi4x1BGn7HGK89yZuaaP1TPh+K+0bJVk11fmL1zy5fnz57PdDzEaBz8LaUloLVWTEO7on2z1LzPF7jdJ9LuKiF033nOcu7/uYmcqf699DAou6xTtJ2W96+/nxupcTryxhaf3Zrx7jhHvcYrvzzz37CGW9M5lns1fsLrh+nX8y//45ciG67s4Vg87vu8JrQjwj3/7PZ5/QX9AxRr9gpVkx6yNVNQX07src5OjUiOH5dv9Pw6goCqZ9NxDJbwz0Mm6HZ/EKAcYX/7ur2t4+a8Nsw5DI7enogSwFayszoWBA7x1AQVV+49TfA3bD7Ekt5idyf7UKsDHF3OGT/nWXRoYk8SM3QlWMiYZf03I9i9NZZPxdLvJr1iJpN9XufGmBTz37KEY5QDjy7/9RxNttZfz8j+N1MdEm7lee+t2VpYAHa+z9cndGexl9tl5nCy5po/VM4tTN4r/2zyumHmOY/WHOfYLONNUyRMn4t9MJEhlACIiIpIyo8oATKgMQOxQGYCIiIiIOJbCqoiIiIg4lmpWRUREJKX+8W+/l+0uyDiSkprVmSXTOfVpN+fOjf0fAhURERER51AZwDhWu6I+/k4Wb5NIW6m4bTraSVX76e5Psuz0z2nPUTpehyIiMjapDCBLrH7oNu7eFbedePuMVfHum5XrY7H7uKXisbYTtjL1vAb7FK1v2Xh9Ne7eNerxHs+vdRERiU5hNUsiP3QT/SA2+1A3tpftD/hkjh+r/1baDV5v3NcJAcjKc5+pEcRkA7/ZvrFuY/dYkdsiLyu8ioiMf2MmrLrKlnGl5xTvvXOcoag7lXPl0ml07Xubjqg7STTZDrZmovUnW/2MF54g/X1L1QiolXBpvN5K++kY6Xbi61JERDJnjIRVD2VeN6ebYwRVoKB8Nq7upgSDqpuSJcsoy4HTzbs43JNgV7Mg1khdNkdXEx3FjBVqsnWqOtbodaZFG2k2/jdye+TtYo28JzLSm6rHwk6tqgKsiMiFYWyE1cJiCuiKEyA9eIrgdHOX7eZdZcu40gttrV3g9STcTScwCw1WAmuqTzsne/rfrC07pQ2xQpudkULj8VPFyunuRFn9cpDKUUzj82LnWFb21aiqiIiMgbDqpqTcw1Dr25yOsZerbDYFg0d5z+6IaGGNv7xg93GGCmsoS6arFiUy0zneSFe8EGcME3aDXqxjRtsvVaEj0fAdLbQl0o9Uh6VUj2QmG+islDZY6QfEf51a7YOdNhRmRUTGN+eHVZcHT46Pri5fjJ3cFHjcDHV1xSwTMNXTRGOGT/nHCitWg0dkGDNui3b6PV64jBVm7ZzCT1V4sBK+k10tIdHgbuX6dIYoO6fw47VjvG3kNju3T0YyrzkRERnfHB9WC8pn4xo8yulYKbRwNmU5PtpiBtoLU7LLP6XiWHaPES00JTLCavV4dk6XO2FFATC//4k8Jla/7GSSE5fTEhGR7HB4WA3WocaZWHWpBxKeWDV+2VneKRVSNTpmp7zAbhBPVcBLRjprVhPpR6yJV4kG31T3K9XHEBGRscPRYdVVNjv+xCpXOWUJTqxKRDom26QjJDnhFGoip6lTddo9mdPh6ZaKmlXj7eLVjVrpR6zgakeyX1iM90mhVEREwNFhNVCH2nog9sQqzzRcg0czttSUnYlK2ZTtvkULKFYmgsVqz25Nb6qXQnLCl4BIiY4Mx1rWKpl2E+mf2XtKI6siIgJODqvpnliVBOPIT7KzsFMZkDJZn5pMP+yGIOO+dm+brYk76T5GqkJkZJvB7ekIrMbjWCnnUCgVERFwcFi1tMB/4WzKcro43Jb5iVXGD/REjJVygkT6YfxvvH0Tmc2f6RrTWH3J5O1jtZNsv2K1ka3HWyOrIiICjg2r1hb4D06silUmYOVYlStqKDC2W1VPLcDg0Zg/75roh7eVJZnsMpswlA12go2VtTWtPE6JjMrZXXIqHc9ZtH4lOynO6pcAs/bilW/EOn6qX3cKpSIiAvCV+QuXfHn+/PmkGplZMp1Tn3Zz7ty5lHTK/4tSgxzeHSOIusq5culshsbYT6M6ZQTUTKy+ZbKEAOx9EUhnDXGq2k607CETx0vH8ZPlhNeiiIg4gwPDqpuSJcvwdL3NezFO77vKlvl/eSrGyKeIiIiIjG0ODKsiIiIiIn5/ke0OiIiIiIhEo7AqIiIiIo6lsCoiIiIijqWwKiIiIiKOpbAqIiIiIo6lsCoiIiIijqWwKiIiIiKOpbAqIiIiIo41dsNq3WYatt3P+gorO1ew/kfbadi2nZvr0t0xEREREUmVi7LdgagqNnDPTdX0v7GFp/dmuzMjam/dzsoSoON1tj65O9vdERERERnXnBtWU6qFHT/Zwo6k21nBnJIBmg/0UVU9j1p205iC3omIiIiIubFbBpANdfOYQR/dO45wglLmqKRAREREJK0cN7LqXX8/N1bnhi67V2+nYXXwUjtv3fu4YTSzj+6WFdy8bQ0zAltOhJUNVLD+R7dQFWpugOZnf8yOlsijRu4HDBzguZ+8SKthU+3cUuh4nUZ2Q8caVs5dAXsNpQB1m2lYDW/d+zpFxvYiSwYCJQ7uUfc+8v6JiIiIXNgcF1Zbd/yYrTuwWLNayspt+TQ/u4WnWwJBd/X9rD8ZDKSG0/91m2lYnW/aSu2tt1DFAZ67NzychlvBnBI48YY/dDZ+2M7K1WalAKWs3HYLvgNPsXVHS+B+rOHmut3++xG4XwSvJ1gHq6AqIiIiEslxYdWe8JHS1gMt+KqryZsOjBo9jaaCojygvytGUCVQAtDOW8HgfLIPH9XMqYPGiDAdNrrb0kU/kFdY4e/U9HzcDNB8YKSDjR+2s7Ikn6IKO/0u5Om6+ZSYXjfEwXf388Mhq22JiIiIONMYD6up0MKOfe1UrV5Dw7Y1pqf/IVACMHCAE6GbvUvrQDVVkaUADNB/0njL3Tx9r+H6k334KMVbXQEtLWFtv285qAL0cPPePXZuICIiIjLmKKwC7H2crYZT9Dduqya8ftRfAgDB6wxyba4KEBhpnVF9Cw2hptp5K2YJgoiIiMiFSWHVqOVFHrr3xVBoDZ3ir5vHDLPJWZH7WeBd/w1mRBm9tUdlACIiIjL+OTesBkcgR51mz4BAXWlr4HS+tzAfBlpGn6ZPtI+5+cyAJMOqygBERERk/HNuWGU3Tz/r4Z6bArWkgP2lncKXtQKoumk7VWBYTmr0PuETtyq4oiI3ygSs3XzUsYYZJdZLAVp3vEhzxS2s3LadlRHXnXDYr3WJiIiIZNtX5i9c8uX58+eTamRmyXROfdrNuXPnUtSt8av21u2szDNZw1XLV4mIiIiMol+wyqjAMlnRtg/0jaw2ICIiIiIaWc08s7IDRv/KlYiIiIgorIqIiIiIc6kMQEREREQcS2FVRERERBzLcWF1akEBF13k4BW1RERERCRjHBdWRURERESCFFZFEnBH5XJeryyMuc/a0sW8vqiUtRnqk4iIyHiksCoiIiIijqXi0IoN3HNTNf0Wf+rUu/5+bqzOHafrorp4cNFiFtLKM++280q2uxNXDVO3Xk9xbvDyMJ3P3EfvsfC9Lr7uAebWTAxdHmp6gZaXmjLWy7Sq20zD6nzDzwPHUsH6H91CVe44/WlfVyk7F3mhbT/r2oey3ZuE+F+rfbTe/VN8CbUQ+Z6A3l130rkn8hgToWMvzY+/mmSP7biW4ofrmJjA+29t6WI2lrkA8KX1+c1h+farWPDZIX72QLfF2xSx9okFzGCQQ8//nj3709Q1u3Lu4pdLZ3Fk3638eNDG7cb9Z+JS7l+6ifzjf8/tVp9iJ6nbTMPqUhgY/UuYifOv/5534Ckeiv9BkhUXRFiN9hOnWRX4g+BmwGLQkNGa6G1oohdg+V1U1eeb7nXupftofglCH5YZ7GHSbH5wZEroAyqlfzAlWe7N11PMET68+xnG06rXr7Tv55V2Al9IFvO6J/Ev1JX3rWLV9JHLJ3a/ySs7U9XTNFq3gNtX5FgMxN/jZ0sXwPEnTIJq4LJLavcAACAASURBVEtrv8PCZcY+E/fx4+Pf5tWq/87PmsdoYL0AXRBhNZVad/yYrTuSb8dbXYG74wDNedV4qyugRWlV0q2FHT/ZQvIv3wquqMjlxIED5FVXcEUFtOrl6wDXMrkEenfFDqojX97GoKF21r0LOxd5+V5pD6/YGmE1jJpuCiSUdQu4fcUq1pJMYO3mlU1vJnrjNFjK/Uvr8Xbt4tq2fWk/2pj8TOzeyk+PP8ldVQ3c9NZWnk3fkVJv7+NsddDARaaoZjUr/B/2vt53eb9lAHfFIrzZ7pKIVRWL8OYO0H/gXVoHcv0fLJJ9szxj66xBooaG6APc7hxbNyvatIAF7m7eNJ7e33mIF5sHmbFiAZWp7WXW1Jb9A1/Paec//vjLbHfFhsx/Jja2/St/GCzlr7/2vTQfSVJhHI+s+mswZoQuV3PjturQJV9YbcYA/SdH6vlGX2847Wl6e4NgPYnBqPrAwId964EWWmnBN2p0yt8Xb8tTPNSzxtDe6NMjtbduZ2XJ6G5E7V9MQ3QNAvY+A2xzb34EL3tpPjyLqvriwNaIetPAaf2wbbM2UrFxHsMRNXjjUeTrzb16Ow2rg5faeevex2kMXdtHd0v46z38NRf+2jZ7HUU7rtm+3uoK3AMtvN/SAi0DVFUswkuLoRTA3xfe2MJbhcb2Ivsd+R6N37+YAiHGvBgkVQI1of3h9Z7uzY/gzTvChw3PcC6wT96xF+hgraFeunN0LWrgNe2ycsw4tdnxWKndtvTetNEn9+ZH8Eb8fUq62tTlIh/w+ewUYuZQ6c2Bky0cjrimu+kTPq+6jKLFcDhwev3zvkGKNl3FhqrgH8Nu3tx0KHTb8Osw3Sd43OXbr2KBO3g5Sl3r4jJuvKGCycHLJ0dqZiPLFhbcsIoFNwQu+Fp4cUsbI/F7KbWXuhg8/tro0cLQafaA3DU0bFsTujr8b4bTPhPT8TclWA5Qy/2tv7RX1xumkKfr5lNCD7/e+wGP2rx17a3bWYl5SYZ3/f3cWNHiL7WKfBzNaoTrNtOwGt669whzDI+D2XNjlh0i6+RHfR4YjhnWt8iOh/phfG6Wc+ejqymjg1/d8QS/Nn84ohrHYXU3T9/rf1Dj16zmUnXTLZx4Y4t/eL1uMw2rb+HmnpE31MipjkAhslkzFRu4Z3Vp3MkrIx/2AO/SOmB+2sNdfQsNtPPWvVtoDN6P9Rt4P3A//C82w5s18McIBxdJh5TUUZV3hA/v/mnow734uo0MNIyvWrtEhV5vlmpWS1m5LZ/mZ7fwdEvgj8jq+1l/MvjH2XD6PzAhy1TdZm6shuZnt8QIioERkJZ3/e+lA2YfLH4zVm/nxoEDPHfvi7QGAvPKW1fQ+ORuQh8qkX/8qhk3NdyumuuZ27GX5rtfJVgv7d187UjIXX4XVfXF9O66k5bAly9/oDS2MjIpqTkYLJffRdXGB+CZ++g9NnpClav+EabWBy4MBAO0jdrtuO/NeH2CUJgNq59Nrmb8jsrlfCu4WlzPB6yxWQKQ74bPW6MlkhzyZwCBEDm56io2nAyWC/gD56r7ijgcCJDdT/yenxlu7Q+vkW36J15Nav49P3sicNx1C7j9hqsAQ2Bdt4DbVxTxecR+a9d188pOOPzAm/4AbKVmNecq5uVA16DJ6f+WF3no3hexVrPqzM/ElP9N6f4TrdSTnwMkHFZTIM+DF0blkxlTc6G/y789dPo/8PxFbczk86B6A+sPBB+D4O2DjyOYPYcj+eLHgcDp36fhRx6e+8mL/p1y85lh0m9vYT4MtHAisUfD1DgOq/aEvZn2HuHE6lLyCisAG5+a0/NxM0DryVg7RXzY00J3PyajU4yavHKidwBKgi+OCorygI4jI99cWvxv8qqppfb6HWlwaPTEhYL5vD4/yrqiQwlMdjB8iEITA8fWQs0kLgaFVdvCRw1aD7Tgq64mbzq2Xgbewnz8o7QxdjKMgADQ0kU/UWrMwr75+1/noT/KFR7ygBMfjnxYJtrvSH2Do0OMcTb5KD0fsOZwT+IHjCZstv2rfN5Rx9Q8T+A1XsPUq4uhY2/MswQXX7eYqQNH+NA4ArpnD51XX0/eFTX0HjNMMkzVmYc4700rfWL5copzh+l8JsVfPtPxXO0f5MwNEdtOGlcDGGTP/m4WrLiMSrpHjcxGU7Spghm+Fl58wpCCdrZwaPFVzKzJgf2DQBFrVxTByUM8F7bfocRWY8mZQg7tNKdg0pAjPxNT/jflY/oG4eue70F3omUTPdy8N/E33IneAUIpsWID99xUQeuzP2ZHi/8z3tfSbrPFOJ8HdWuoyh2g+dkYE2MrNrCkBE68YRwZ3c3Tb8yjYbV/cGJHT5/hBiMj30/vjQjZIXt45I7EHyeF1VTa+zrNS2+h6qbtVBFleaCKRXhzob9n5J3T+GE7K1ebjE5FPNnhheyBN2rJPGrZHRhZ9bd9Yl8aZnie/oA1F2BR94WkdcfvOFG9hpXbtrMyyql4b3UF7rBAu5uPOtaw0uSDxdcb/ke28ckthi9WXfQDM+augL27DW23804aXmeh2eSOMZ0JudD729hLR11cMBFy5zH34UdGX1kwHcj8EmxW+nSxJx8GPmbAZqlCVizOYRJwJtY+J87wOeGlAvEU5ueAu4INT5jUdAeH8gLHPvFRaqak1+YUAmn44pWoFH8mOulvSqq09vRBtX8QiuoK3ATmAQTut/FxSYXgqOf7sZqdnm/+uO09wonVa/zB92QfPiooqgCmz/P33/DYRz5XyVJYTamR0621t25nZaDO0Fgv4n/zRNYgErrOzgxI/0hraSBc+PkOPOWoJY5kLAmWzgROE436gPGPgEBu2GvOz+6qAO30D8CMEmPd3ADNzxq/yQsQMdLpEE7sU0yD9Plghtn53hmTmMwgH8c6Zzlj0kg9qR2jakrTq3Gwh7sydCxrMvmZmPjflEHfx9bvUqoZQ99UaH7jAN6li/DSRV5u3FtnT+CsWt50fwA+8cbrsHoetbT7z/r2pvZwCqtpEvzGV3vrdsOoU+DD3qQwOnw/K1awsjo35Yu7P3p4j3mBeKrLAMTBgh8wgdAa/LYcHLkf9ZrznwKy9cFSt4aq3MjJEcmKfjouK2UAFkz01GAcHb24ILyi89zpYShxVnmM5T7lRuyT5GoFUf82WTLI4dZBFlSNPpVfOacIfC0xR0yLCv0ht9vGgv89fYMwfRKFED2sBkoQJhWmqGhy8DMGWUBVUayDZkfaPxMT+psyk/xoNb6Z0tJFPxXACubktfDW3ndh6QauqIO8uCUUCYqsNQ2UUISc7MNHNXPqoNH4t75uHjMYoPkkBL8c5FHBFRV9fLRjN8xdw5y6UshN/YjwBbF01YneAcj1j/xkVqCuNHQ6v5S83PCamqBE++ivIUqVQp6uW87rdfO5I/Kq0x+wZu8e83/pCKonzzDERCYEZ8FamjU9DhlPbWWc//UaOp0TODX00agvR/4/WvaXm8n3jyakSsF8Xq9bzuuVo79UvdK+P/rr11ZQbeKLQJ3cxYEtZjPe43uVzzvAVbM8NDvbrJ1zL+2nl2K8WzeGjpdtVvp07v2PGaKYS68LzBZL+v3r4sFFUf42WdT9RAsnKGLVfUUjG9ctYNX0QQ7tjDH6ubiMv6zK4fPm0SsJWDre9jKKou/F282DTK66irXrDJvXLQi/DIFShBx/vWs0g7/nyCB4PbGWYzKWkGVauj8Tbf5NKbocL0P0JfU9IcbnpiXt9A/k4l3/DfJa3qUV/yn6qqUVxJ1DkIDWAy34KGXJ+sADFblKBATmv8CM1ZsNr5EV3Ly6FDp+F5q4290PeUs3UNXvnzvT+GE7M5Z+gzwG6B8Vspdz56M/4bFH7+Uf5tjv9wUxstq648e8NXU7KwOnNcH+0k6jlnmovoWGajAunTF62R/CvzGGfSuJ6GOgCNpYqxJbsNg52A+D8fCrQseeoaPpAeaGZjZ30nr3XiY/XGfYyT+7eKphS/HGRyiGsMkto0JAzfVU1VyP6VJCjrObp5/1cM9NxlNbdkcPRi/nEjzFb3x9mi5lYnif1M71/8Tf6LOlLbzfMkCVnR8I2Ps4b80Nf0+aHdOJfI/vpffhulDN5lDTC3x4ei1zZ9lt5wU6t16P19BO8+HlVNUb93qVzrsBw/H87C9flbr3gYU+HXuGll13UVVvPMYLXLL1evNZ43HlkJ/0N9VuXtl0iLVPLOD2J4LbIpeSGqT7M2C6cZ9Ef+Vq5Hjhdavhx+x+4vf8LPDjBLcHv5OePMTPHohobn8bz82YxO0rrhrp26gyg300fvoPfL089nJMjU8+RdGPbgkr57F7ls5xn4m2/6Ys5f7yUujalcSyVakQmFBWAs2BiavB++42zKgf9ViGlh6zudRfy4s89Ea+ITu089a9/tfDyGCD/+xa963bR5UZbjUc6ETvACtLckfmyQRqWmfQbhKyO+g9A2WTcpn99XL46LjFDvt9Zf7CJV+eP3/e1o0izSyZzqlPuzl3LvkTVVMLCvj8s89Itk/jXrQljcbS8lVj2B2Vy/kWsU8fry1dzEbPpyqRMOH/w9s3KnSPt+Wr5MJQtOkqNng/yWh9anRLuX/pJr7u28W1Y+qHAZJj929KbdmT3FXew3+MtV+wGstWbuKxvyzhzB/+hft+YS+sXhBlAOPS9PzwYfuI7amuFxFJpRlTzWcO+Len/tSXSOoUsTbs1H4Ry6py+Ly12wFBFWAfP24+xKCnnlcvoF9nsvU3paiBu8pdtDYrqGZOOf+wrATo4Dc2gypoZHVMMz3Fkuiv/4gtGllNVuSvagWMhxIWGf8CC/kHfd78+/B1Up0g5y5+uXQWR/bdmuXT3Jli9W+Kf+Q5//jfc7szvl2Me9+6/Sd8pxQ4c5DH/q+XOZpAGwqrIiIiIuJYKgMQEREREcdSWBURERERx1JYFRERERHHctw6q72nT2e7CyIiIiLiEBpZzbLaFfXxd8pCW8m0F+92qe6nFdGOmY2+iIiIiHWOG1m9UMUKTY27d2Xk+FaOY2W/xt27LLcX6zhWxDpGtD4k2zcRERHJHIVVB4kWrMwkM1JodpxUBEwrrB4j3j6JhmYFVRERkbFlzIRVV9kyrvSc4r13jjMUdadyrlw6ja59b9MRdSfnSCY4Rd4uFSEsXmCNd52VbWbb7fbbzn2N3M/KF4JobbvKlnGl1/C7Yd1NNP6xy1I/REREJDFjJKx6KPO6Od0cI6gCBeWzcXU32Q+qrnKuXDobV2hDF4d3N6GpXiPiBcRUjlYGj2U2Kmo8VrT9jPtG22Z71LWwhiu90LZv15j4IiQiIjJejI2wWlhMAV3E+GVLwIOnCE432x3p8lC5dDZDzbt4rwfATcmSZVQuKY89ipskOyORVtoyBrhokjn9bjWMmh0/0bpRs0AZGVRj3da4X6xga0XBpR5I5IuQiIiIJGUMhFU3JeUehlrfjjnS6SqbTcHg0UDgtKOLw2HhxUfH8S7KqqZR4DqesXCSqrrKRIJhrIBrNXxGu954+0TuVzJ1p2b7JRZY3bhygAvi97VFREScxflh1eXBk+Ojq8sXYyc3BR43Q11dKRwJdZObA+kYWjWO8qWiLSvHisVOcMvGUk9W6k4jxbrfqRhpHaWwhtoqz8jlwaMmI/MeKlfUUBC67KNtjNRXi4iIZIvjw2pB+Wxcg0c5HesDvXA2ZTk+2mIGWutc7hzAx0AaRtISqa+E2COmsSYyZWPmezrWe7U7shpvfysT1EZNqMqpoXZF8MJI0PTvZ6xn9ZeSXLli8kjtc6Aumta3aWzzjbS/tJ7c5l1xSlxEREQuXA4Pq8E61DgTq1JZT+gqp9LrTlt9YrRlo4IiJwFFk2jojdduKkS7P4lI9FR+5HGtPq5GQ21v09gGwfBZNmg2+98/+W+o1ThC6qOj+SiepbPxFMLpnpEvXe+1+QztH6DNs4yySz3Qo1UFREREzDg6rLrKZsefWOUqpyyhiVVm/JOtXHRxOMqSROkcrbQzGShe6LXbVyf+kpPVU/nRrjdrw2zEOqnn1OXGhUmZylAXXYOz8bjd0AOuHEzKVHyc7vJR5nHjIpUlLCIiIuOHg8NqoA619UDsiVWeabgGj6bgNGqwntBH277oy1YZT7unY7kms2Nl4lR+KkNtqoJvvJn/qfjhABEREXG2v8h2B6LK6MQqNyVLgkE1/oQXK8tE2WFlBHEsady9K/Qvcnui7SUaPOOtRpD0ZLchH0O48Xjc4dtdHjw5MOTzAT6GBsHl8RjW8oXg65dBn0ZVRUREonBsWPUv8H80dnAsnE1ZThdtbclNrCr42jL/BC0bM7NTNWJnZ73RC1kij3cwMNeuqE/jKGsXXd3g8lZTEkqibkqq/DWqbYER/9OfdkHObCrLRkKtq6za/7o7rnpVERGRaBxaBmBtgf/gxKqkfmmqsIbKIgA3ZUvrKTNeZ7r80IhUhJ9EfzY0FrvBLB1BOFof7KyRmqp+QPz1WpMZvT39x128F5jZH3r9RP4Ua08TjfvKuXLpMmq9wY36pTQREZF4HBlWMzqxqqeJxt3JNeE0doNXOoJttD5Y6ZvdwBhrFYTIX7+KNXktet98dLyzi44YfRhZOSDWTsd5b/fxODuJiIiI0VfmL1zy5fnz55NqZGbJdE592s25c+dS0CX/MkGerrfDlvmJ5CpbxpWeU2n9SVQRERERyS4HhlURERERET/HTrASEREREVFYFRERERHHUlgVEREREcdSWBURERERx1JYFRERERHHUlgVEREREcdSWBURERERx1JYFRERERHHcuTPrTpe3WYaVpeOXB44wHM/eZHW7PUo/Vyl7Fzkpe+DPdxs4cfs15YuZmOZC3o+YE3M380VERERiU5h1a6KDdyzupQTb2zh6b3Z7kwquXhw0WIWDipcioiIiHMorNrkra7APXCAHeMqqKbeK+37eaU9270QERGRsU41qzbNmJqb7S6IiIiIXDCcN7I6ayMVG+cxvOtOOvcYr7iW4ofrmNqxl+bHXw3fZtirN+x2NUzdej15x16gpWs5VfXFge3DdD5zH73H0tB/S/WsK7h52xpmjOxE87M/ZkdLGvoTT6AW1R26PJ/X60au7girUR2ibyhQLuDyb/G17Wdd+1Bo/1CtKubXhxTM5/X5hWGbOkzrYZdz56OrKaODX93xBL9O4C6KiIjI2OW8sHrsffoH5lF89UZ69jzDueD25bOYyjCdvw4G1Rqmbp3F53ffSWdgy8XXPcDc+gc4ezI8iLpqrqeKTlrvvhMf4N78CN7rNjLQYGg/lsgASjU3bqsOXQrWr3rX38+N1dD87JZA8Kxg/Y9u4cZt+bx17+M0gr/m9aZqOPAUWwPp1Lv+fm68aTt52aiDHWpn3d52rNWsuli4aDEdH+xhzWkCgXMxTw+OhMyR0/+FPF03n3zTZkrZOb8wSjgVERERGeG8sEoTvb9dTnH9THJnEQqd7spiGDjCwDHDfg1NYbc89/7HDNXMY8J0wDhqOnCEDw3B9NzpYSiZxMVgLazufZytgRBZe+t2VuaZj5aurM7Fd+ApwwhpCzt2HMB7UzVz6qBxL9SurMY9cIDnDMOorTtepLniFqrmroC9u630iGAYLDG9boiD7+7nhyYDmskKC5inu+igkPwcF5y2cTBXLm6GaLF0kz08csee+LuJiIjIuOTAsArsOUZvfR15V9TQe6wJuJbJJdC7K2IkdPldhlP7I4YjN/R3hd3u3Ev30fxSivtc4SGPAVoPRJzLb3mX1oFqvIUVABTlga/l3Yig28L7LQNUVXjwgsUlsHq4ee8YDXGnWzk4tJiFi5bzOtFO/4uIiIg4NazyKj1Ni5k76woupolzy2cxlU5ajdksEFSHml6g5aXACGug3lWcbogfvut/Mu+oXM635vtDa9T6VhEREblgOTSsBk/p+0sBvqj0h1Kf4fqLPflAJ5++1BSticxq6aKfarzVFdBiGF2tWIQ3F/p7/Nu6+6GqYhFeWgwjqBVcUZEL/V02flggO2UAqfbo4T08SiC0egpZ297OK9nulIiIiDiGY8NqcKJV3hUbGS4Zpv/XEfWpXX1APpfMAt8xQqOqLkzKADJiNx91rGFl9QbWH/jxyASr9dVh67I2ftjOytXVrF//Lg+FJlhtoCp3gOYdVutVIfVlAEN0DQKFHu6gh0dT2HJ8Ljw5wOCQSVANrgYwwB+e3Ma/fpTRjomIiEiWOTeshiZazcPVsZfmyGWm9vyU1spH8G58BH/V6jCdz+xleGPd6KYypPHJLZwIzOyvCm7seJ2tTxpC6N7H2XpyA/fcdAsNoQUF2kdWC8iiRw/vx7NoMd+qW863Atvs1pPeUbmcbxlXpCpbzOtlAD38eu8HPMro5a2AGD/L2kHvGSiblMvsr5fDR8ft3CUREREZ474yf+GSL8+fP59UIzNLpnPq027OnbM0t17EnpWbeOwvSzjzh3/hvl8orIqIiFxI9AtW4nDl/MOyEqCD3yioioiIXHAcXAYgF7pv3f4TvlMKnDnIY3e8zNFsd0hEREQyTmUAIiIiIuJYKgMQEREREcdSWBURERERx1JYFRERERHHUlgVEREREcdSWHW42hX1Ce9n9bZ2Jduundun4z4k2ma6Hk8RERGJTktXZYFZ6GncvSvm/rGuT3VfIqXr2PEE+xatj5nuV+PuXVGfC7vPqYiIiFijsJolxiBjDDrG/w/uEyskGVkZXY1sI/JyOoOxHfH6kclRzshjRXtMoz2nIiIikrgxE1ZdZcu40nOK9945zlDUncq5cuk0uva9TUfUnZwtkaAYa7TPTnux9k80LIP9+xRvRDVyv1h9jnfbSGZtJdJ/JwR+ERGR8WCMhFUPZV43p5tjBFWgoHw2ru4mm0HVTcmSZZTlGDYNHo0dilPETqhJd/iJ7EsigSvW6fFYo5NmxzU7frRtifTJ6qn8eMdWKBUREUmvsRFWC4spoIvDPbF28uApgtPNXTYb99Hxzi46Qpf94fXKJWQksBpFC0uxRhDjnaKOFgoj9zErD0hlGLMahJMZ2U2nyMcjVaPZIiIiEtsYCKtuSso9DLW+zekYe7nKZlMweJT3YgZaK3x0HO+irGoaBa7jGS0nMAtCqR7hjLY91vWJlhIkG9ziBfFMiNWHaJOqFFhFRERSx/lh1eXBk+Ojq8sXYyc3BR43Q11dKRwJHWTI4XWvxlPmkdutindq225AtHMK32q/4tWm2hGrzCBeP+K1KyIiIqnn+HVWC8pn4xo8xelYwbFwNmVxA61VHiqrPAy1Ho05kpsOdtcfjXUqPfJfohK5rVkYNAvV8dSuqA+1k2woj9bHdEhn2yIiIhcah4+sButQ40ysutQDtidWGUVMsho8ynttqQi+iYs38ueUZZ3SwWwkNXJENJFT7dECtJV2nLLWq4iIyIXG0WHVVTY7/sQqVzllCU2sMgqfZOUqW8aVK6bRZrIEVqbqEVM9GmpnGScrk7JiiRYoE1n5IFZwTaRPZsdKtCRgrH8pEBERGQscHFYDdaitB2JPrPJMwzV4NM5KAfYMtR2gzbOMsnIPHX8MD8HGU7yJBsp4C/MnK5E6U+NtU7kCQKLBMlrfEmk3U18wkhn1FREREXPOrVnN2sSqEUO+QdPtxtnuiYo2OSrW/lalsmbV2KYVqQhqkf021q4a97H6mMTrT7bDuYiIiETn2JFVSwv8F86mLKeLwymuLy342rK47aZqEk2qZs+nUryfaI11u1SOGscbwc50OLTyfCuoioiIpJZDw6q1Bf6DE6uSmrXvKufKpbNxGbd1N9G4O34NbKLBJNYoYaIjiPHW/zRuj7c0VaIL88d7POz+ZKuV8oRUlGWoZlVERMS5vjJ/4ZIvz58/n1QjM0umc+rTbs6dO5eSTrnKlnGld5DDu2ME0UDIHGreldJ61XSLFYzScV2yfcrmsZK97Vi5XyIiIhKdA8OqfxkpT9fbMZePcpUt40rPqYz/JKqIiIiIZI4Dw6qIiIiIiJ9zVwMQERERkQuewqqIiIiIOJbCqoiIiIg4lsKqiIiIiDiWwqqIiIiIOJbCqoiIiIg4lsKqiIiIiDiWwqqIiIiIONZF2e5Awq75OUtX5dPx/N/QeTzezusovucWStzQ9+YqPvpNJjqYWd7193Njde7Iho7X2frk7ux1KKVWcPO2NcwIXR6g+dkfs6Mli10SERGRjHBuWC3fzsIbFjLssHCZf/ObzJkBnNjFvqcfyXZ3/Oo2c2M1ND+7ZRwGuArW/2gNM8ZV+BYRERGrnBtWU2onnQ/tpDPpdu6kcIaPjoN9lCysJB/oS75zSaudWwodr4/DoApULMKbO0DzDgVVERGRC5FqVu24ppJ8+hh+5TB9lFB4TbY7BFBBUV62+5BG0/NxZ7sPIiIikjWOG1mduPbfWbhwJJ5MXPUmS1cFL3Xw0dYfGEYz+xg+fidzGurJD24JKxsYqVX180WpcY3cD/Ad5OBDWxg2bMqfWwIndtHHI3Cinjlz74TfGEoBrvk5S1fBR1t3MdHYXmTJQKDEYeKoex95/1KkbjMNq0tHLg8c4LmfvEhr2E5jtS60gvU/uoUqQ7nuiTe28PTe8L0s1/Su3MRjf1kC7W9w28/2pKfLIiIiYtlX5i9c8uX58+eTamRmyXROfdrNuXPnUtQt4tesXvNzlq4qwRhA/UEX80AaY0JW/s1vMidvdDgN5w/FBPsTCqaGcBnqEwwffIqDr+wcfT8ClwleHzz+DHtBdVT4CjMSNP37YQiewXDXzlv3Pk4jQMUG7rmpGg48xUOBdBps3yz4pV9kcI4QCpqB/YzBMxDMfYb7UnvrdlaWGO5v8HZmoV1hVURExFEcN7JqT/hI6fDBFoYXLsRdDMRdISBoHRPzgP5PYgRVAiUAHSPBubOPYRZSeA30RYTpsNHd458wzEImFq4DdkJxPhPx0XFw58j+H3bAjHwmllvvR4COpwAAIABJREFUd+uOH7N1B4TCZ7/ZSOEKVlbn4jvwlGGEtIUdOw7gvamaOXXQuBdqV1bjHjjAc4Zh1NYdL9JccQtVc1fAXqv1ooU8XTefEtPrhjj47n5+OGSlnd08fa8xfOabjvJ613+DGbTzlvF+732ct+ZuZ2XFIry00FqxgSUlcOKNYFANtP/GPBpWV3BFBbQa233rCW57y9KdFRERkQwY42E1FXbSua+eklX1LG2oNz39D4ESAN/Bke3H99PjW0hJZCkAPnxhM7ke4aOthus7+ximhMKF6+g8vjOs7T7LAduiCg95DNB6ICLltbxL60A13sIKAIrywNfybkRZQAvvtwxQVeHBCxHXRdPDzXszNxo5Y2oudPzOEEL9Gj9sZ+XqfGYArdPzcdPOO5Gjw3uPcGL1GvKmA44vdRAREblwKawC/OYH7DOcol/Y8Cbh9aN3UjgDIHidgdvmqgCBkdb8hbewdOEtgY0dfLQ1VgmCiIiIyIVJYdXo+BYObiUUWkOn+K+pJN9sclbkfhZMXLuM/CijtynX0kU/1XirK6DFMHxYsQhvLvT3+Ld190NV8LT5yE5cUZEL/V0WR1UhdWUA1pzoHYDqedSyO2x0tXZuKQwc4ATAyT58jJQ8hNTNYwYDNJ9MXX9EREQk9Zy7dNVxfw1p/tw7M3/sQF1p8HT+xMJ88LWMPk2faB/d+SYrAZhZwc3bttOwbTs319k7hN9uPuoAd/UG1lcEt1Wwfr2/RvWtQHhr/LAdcqtZP7IT3vUbqModoPktO+ub+ssA1pj+S21QBWg90IKPUlbeumJkY91mVpbAiX2BiVMt79I6ADNWb6Y2tNMKbl5dCh2/G73awcpNPPboT3js//4us1PbXREREUmAg0dWH+Gj5y9j4Q2BWlLA/tJO4ctaAZTc8KZ/5C+0nNTofcInbq0jv8IdZQLWI/ScqCd/hvVSgOFXfkFHxS3MiSwnwOSnYCs8JLuEauOTWzix/n5uvGk7VcGNkcs27X2crSc3cM9Nt9BQHdxonD3vUC0v8tC9Xdy8bQ0N29YENg5E/JJXCzt+soXuW7ezctt2Vga2+g48xVazdblO9HGGEiZNKmfpHDj6UfrvhoiIiETn3KWrxqloy2QlsnyVpMe3bv8J3ykd4A9PbuNfFVZFRESyyrllAONSYJmsaNt9fZpklW1zvss1pUD7PgVVERERB3BwGcB4tJPOh0pwN9SPXlUg8leuJMOWc+ejqykDzvzhX7jtF6leR0xEREQSoTIAEREREXEslQGIiIiIiGMprIqIiIiIYymsioiIiIhjKaxmUe2KelvbE2krWaloN119S0UfstG3eMe00yezfRO9T6l8LJJty0nPl4iIZJdWAxiHYn2gN+7eFfU2Ztc17t4V9bp0shpKYvUrWr+zcX+MsvWYxpOqfkW2YbVNpz5fIiKSXQqr40Dkh3kiH+zpClDBNu22HW9fK+2ZHdfpwSfb/Uv2dWB2W6ttjsXnS0RE0m/MhFVX2TKu9JzivXeOE/Un5l3lXLl0Gl373qYjxb9D71TpCpjxttkdKUtlGLbTjllwMmsv3j6pFu0Ydo5tfBwi74PxcqbCXvCYsU7hWwmssS6bta8wKyIyvo2RdVY9VK6ogeZdHO6JvlfB1+qppInGP3YleBw3JUuWUZYDQ61v816bL8F2oov2QR4Mc9Gui9aWMayk+0PbzjGSOaUbbTQ2+PhE3mezNuOVEWRjFC+RestslDmkoxTAyv6xaNRVROTCNTZGVguLKaArZlAFD54iON2caFAFCmdTlpP4za2I9WFrFjwTqT9NhVSfCg6yM8Jqtq/VcB4t0GYz4FgJWnbqO6NtT0VQtfvFxM52iD6C6qTnS0REnGEMhFU3JeUehlrf5nSMvVxlsykYPMp7MQNtLB4qqzwMtTbR5anBk2gzWWA13AaZjVZGXhcZFJKZJGMWOJMJrMn0ZTwGoFglAEbpus+pCuEXyvMlIiL2OD+sujx4cnx0dcU6Je+mwONmqKsrej1rvMOUzfaP3rYN4spwUk12FNMoXlCMFC+42h3ps1NLavU2VuoYzfpjZXR3LAYhY9/BWljMZL/MtsV7rMfz8yUiIslx/DqrBeWzcQ2e4nSsFFo4m7K4gTYGVzmVXjenm5tijt6mg91R0Wi3TRc7M7nt9sXqbayOHEa2bdw/XuAdKyEo0cBnt+1YNdRWjl27oj7qiLqZ8fp8iYhI8hw+shqsQ42xAgBQcKkHupsSXgHAH4iPxqmJTS2zUTE7ASFTH9bZHtFK9NSwE2bHRzt+rG1m281qdqPdxqzNTEwai/zCFS18xhoRNms3cj8REbnwODqshk7NxwqRrnLKkplYVVhDZZGPtn2xA3FQKkavIHowtRpYMxlUg8fLdGBNZqJWtFrbZEodkmF1ZDDRvsQLsfEk+qUg1ghotDIPs/ac9nyJiIhzOLgMIFCH2no09sQqzzRcg0dpS2hU1D95i+6jlkdlgx+WiSxDFLx9vBFBu6dg0yFWeMmUeOURiUzYSVQyz3mmmI1OZmsU2Viratwe73YKoSIiEsm5YTUTE6tcHjw5QFFN6AO2doV/nVWXdxm1K+q5ssw96maJ1pgmI9PHclJoSGY0zfi4xZoANB4eX+P9sHMMKyPYVtsxC6l2+uPE50tERLLLsWUABeWzccWrQy2cTVlOF4cTXbx/6Djv7T4esdH/wwCertg/CpCOD8zI0+6ZZLU2NVshNplT43ZXKojW1lgISHaDfSqDc7SyhmjXRbt9Kp4vEREZPxwaVq0t8B+cWJXpGfxBiX6YxhoxMjtGIiEp0cBi53iZmLiTqnbMQpydmtxUhTonreBgtS+JBGDjbe1I1fMlIiLjhyPDakYmVkXlo+OdXXSkuFWjyA9aK6OZdsObnQ9zKxNgMinRgGO2zWy1hWiPTazHbKwEVavs9iXaLP5gW5H7JtKfyNsm83yJiMj48ZX5C5d8ef78+aQamVkynVOfdnPu3LkUdMnaaXhX2TKu9JzivXeszeIXERERkbHHgWFVRERERMTPuasBiIiIiMgFT2FVRERERBxLYVVEREREHEthVUREREQc66LcSfl8mYKGcifl8b/+v1S0JCIiIiLip5FVERGRFCorLba13e6+qWrHblsi2aKwKiIikiLB8OeUENjW3umYvogkypG/YCUiIjJWRIbBtvbOlLQX/G+y7cU6TrraFkklhdUxrOTb/yfrL88JXR7808s8+Vo6fyg2gxY9zLxv5NHzPzdyuj3ezt+m4ObvU5gDA7/7PiffzUQHM+zbM7nhG5NHLg99yqsPdNGXzmNOuYP/7oVdTY/yy3QeZ6yZ8AOevHwSjXpcJMAY+MxGMSNDoZWQmEyIjNYHK/sqvKZbDpeVTmEC/4szn3xKr9N+S+niKcy4LIfzvZ18Ev1HRBOS6ymm4KJBOjs/w+7dVlgdwzpe+2/89DWAJXzvn5cxOdqOpd/h1vXz+Pzt7fxyf+b6F1PpvXj/j0rOOSxcXrLmGbzzXDB4mNant/FFtjsEUO1h3Tcm88nvDvHr1zJ0zAk/4ElvMe2t/6xAFunsz2ns/y/U19wBCqwWBD6cz5t9SH2VqcVFTLroC063n2YgSz20xF1A2dRLwPR+2BM8NW8WDGNtj3Y5cv8xGTgvnsKMyyYwFBng0hienMpSqHMXUDb1ImcG3jRQWJVx4DVOP/0ap5Nu59vklrgYOHKYi+eVkVsKX8Qd1U2//PlTcA99yn9mKqjyVzRcPg8++QVbP8vUMceWX7b9gmkTv0992V/xy7b/N9vdcbhBPumdSNnUHDz5g5zo+/PIVe7JTLoIzvY6OagGwvbZQc6cv4RJJntEC5KxQqNZYA1ejjbaGfyv8XZ2J2LZCciSDoN80j6Y7U6MOZpgJRJUupBJOUOcPXKQM4MuJs37drZ7BMDUyRMyerzvldVSevYI//rJgYwed2w5wE9bjzCUV0vDlGz3ZQzwfc6Z83BR7mRyQxu/ytTJl8DZzxw8YvZVphZPgd5O2rqiB4y29s7QP+NlsBcEI0OpsZ1ERfYtSJOuZCxx3sjqzPV4rivnXOOD9O8zXvFN8n64iNxT79Lx3/8zfJthr4Gw211O7m3X4mp7la7exZTUegLbz9L/0s8Y+NhGvxZ/n7uWwW//y9tM3fRd5gVLRU+9zU9ffGdkv8Ap91Al6eARdjzxK8IrSf2n7acZNxnbMT1tHzjVb6MuNbKmNWfZFu5aFjogv/0vvyDTVQGh0+zBy9/4BfO+EbzUyclH7zaMsPTzRftGpt9RF3qOw2tSR2pV/Yai1rhGHtds30vmlXHJYBsD7a9Bx99QWLKQS3jNUArg7wu/+z49+cb2Ivsd3udYx0yNyXzrgZlcFrp8lg93fsQ7YVlzAkvum8Ncw0NgXlbwV1yeB+2tP2df5FVZEvk6HvWeSvS9GWJ8L8R5bxoFywGm/YCln5k/Xt7//WZurMrB17yTh/6fE9bv9LjzZ3p7BnFdlsOU/K8y0PfnwKjq/+JMT0QIDJ5uD4o87W52+jNtp4r/TG+n9bBoNwBqNNO+XE8xBXxG2+BEw+skSv1nxGvp/EB3+Mh+qAxlZMtZw2vo4vxLKZ54ltPDEyjI/d/8r8Ue8FyWw0UESlfcBZRNhdO9UDD1EuALTrcP4x5VlxqsVQ2KLH2JvD6H4tKRv1bBvud6iikwjF9Muqx4ZLQ/8r0SeF9cFO36KI8BwHkSEdmWSXnP+T9zLux5MSsBinwsnBhWPz7M0GA5eV9fz8C+HSMP2NJScjlL/2+CQfVycm8rZfjBB+kPbLnoO7czrfZ2zn8SHkQvmX8tJXTR/eCDnAUm/P0PKfqr9Qw/tsPmEzKNq//5uwz+6WV++lpH4MNvGd9b/I4/VC7+Pnctm8yRHdt5LRBIFm/YwvpNGD5cS/j2pmVMi/YBmEKhmlYH1ax+8fpGjryOxZrVYqbfkUfP//w+J9sDgfMbz1DQFQx8htP/gQlZphY9jHce9PzP78cIiv4SgC86DvrD6ZE2vohSCpD7jV+QO3iY1ke38UUgME+/biNHXnqGUFD9ZG/gcjAoYy+oRk6o4lKufeDS0KVQ0Kz2sG7dpfDhRzz/b2cByP+7OVy7bgGTLwuG0UCY/eRjnn/gc0P7C1g39SN2Bm4HwJQKShn+/9u79+Cm7jv//89+SwhIsgHjC2CQsTGXBMcYlmBIEy5xDDhLd9vFbFqyaSEtEGZCJ5dSKPmR3249IaS0JLPJDLm0kF7I5Qu03V22kBjKJWmJKQVDIQRibGxwiG2wwZbMJe6vvz90JB3Jki3Zki3D6zGTGXR09Dkfy3b08ufz/nwOR02HulXuwzzIdn76E3c0dYXJefMv+v3+tPO7afwO4H4e1+/mvUPMQTX83823G6opGBDPcIiZcB+zblzm8jUriXH9iKu/Qm9jVNUcMHonDCI1DhovVBvHXR9+qWm9Yr+m1cQ8nR8skAZ6riPlBKH0pUuYA8i1y22ORHdan/6k93JSXXmRG+6AlNSfJlMQc/0sfdkvfCYysPdF3/B47TIV1U7T15DKsN6mUNvLSuJtl6m4cBvDBvchJamFy5WXsaX1d/3hdQPgdhL7OamuvMrAtDj6p8bRfKGWG0nJxA+wcqnGiXn63/1z7sv7fFs1q0011a7fg/ZqVj3PV3uej0tJJTUVU7sB3gMj4IbPVJteaWo/xUqT+WchwPcuMbU/1z19uo2BqX1xVFZzwXhJ74RBMRhW+ZimQ7kMmJZK3+F4QmefkSngPMPVs6bzXv7Y55Utx6u5njWCXoMB86ip8wyfmYJpS/01GGKjF+H/9fCZOfBVXuQK0G+gHYAHJwzB+fG7nqAKUPLHk4yfZycrDaoqAYbQzwrOys/CvHI36zeMd9ICVWsB12v59ak6tkf8or4jkddPVnD9jrH0SQHCGJ28PWEArlHaNk4ySgAaTxpDjZV13GAs8Xc8yMVKv+FHUxCF33O98WGIT+J24HpaEr2BpvI3PKd3qN+/P8ubxmVHPj6Or/QLvPp/5FcGYWv+nP82Bc76X1XyyTOjGZPRD7hCwiODGMwV/vjKFZ/2/5gxjq/Y+5HANU+7U/omwLWz/ClWwmrJZl71OfAR5Z/dx5B+idjBZ8Yi+O9mFQzqhxUnJ094X1Fy5jPuHdKPgWkY35cO/G5ea6SZO7izPxCgvrf8v15n9X+F3tzNrqnG+JBPHUivXte5WG0ONFYGxn2ZlqZa04evd0TWZoOmmC0XaB1QO1IH2t6OAebgGWoIbW+ngojo3Z9h5tHwPv0ZlnDDbxQzgnxGCL+g6erfiI/rxe3gOta7PynGz5J5pP1G/UUuubucEEcfrnPRHKQcF7loTSWxr5Xenl/ov9HY4AT6A1+Gq5doojc2vy5du3KZG1iBL9OrxfVH2MDIf+UhcpXY+P4uQVODk/6D+xDXGy7dCPIedFBcSn9XWz4B28mFGr8T2/ve8QWXqn1XoNxwXIvFsAocqKRp2iQsWXfSdPZj4H76DoGmfX4joVMWmqb2vVr9kXHlks/rWra/RFWHkpWTK5+bH3/E2z9xj8BMpp8VrHc+xNN3tn5lv0EYH4gf8cePJzDPfV4XjLBGxJVzfONYd3eiY67vPEjTHdMZ+uRmgk3F335HOrf7BNo3uHJhOkNblQLA9cu+HyBN7zzMSfeDyjpuAHEZi+DgG6a2q6mL+K4HfRjYDxxVV/xC7DVOV11jjL0PCVxx1bxe+JxP/V79afkVvvKVvgwEz+uH9+kb6U52kp0HzVP7bq3+39rW7ybw+RWcDME+1g6VxsjqiCHgPMnxSu9reuTvZo/i5FJTHKlxX6al6ZLvSGnv2+jF32h2+AWcG06aW6xYet8GRCn8dLGOLmgKd4FVl+ndq1WY6HVbb7rt+9W7F734G43+P0smt9/2ZbjW1Gq0vsl5ncSBrvDk+v9+CzduAL1dz7fc+ML7wONvrnMMLV909/L83vTuBb3ikklvXY9G797AjeDvQfhuo3cv4NrVyMx++JcCEYtlAAD8gabj2QxJH0svPqZlShpx1FBrnmczgur14/9NzXZjhNWod+1Ooex16pmez32Yp++7j6e/f1+Q2laJjDc4/+IbeGpc/2UzSZjrX10lAGAxAq1ZuLsCVHPNCXGDp3PHk9ONY83U/eYHPWIK8+y1qxAzedUdVH3rq3PnL+feoPu0BWGMtA7x+WPyMz78ie/vXMd+N69yOVZGonuAG45rtMT1aR1Ke7BA4TNQGO3MdH6w17bXZpeE2RsttHC7T6Do/sAmrWt0ewAjqPr0vXf/WA2r7il9VynAFyNdodT8edBrYD+ghivbPw7WRBf7jCtOGNJ/CIQaOUs281NPrau5VCAGdUsZQKS5a1yN0Ooe/UzLIT7gDQVc9acBSwGCmTSdJKv/gqtoucalKzDGbyof+jDK3geuGMeuXIMxAxjJFZ/R1ZEZ/aD5c8+0GMCBq/UsHTyce/rAgW4PYMa0/McfdHohoP3BCQwJ5w/CUH83+8RjoZ7Puv29ugnc+IIWrFhst3HJ/AHb24qll3tEKzaFE0LDHVXt7LZSwcoAIrq468Zlzl3q5VOz2rGQ9GXPqJ9H71704jqXwykBMcJzq7ZMrn/xN4jrSxxOn/9Xx1lde+nGxB7bHXaDGy3QJ5TR7V634fM2GaPk4ZVIfsGNlgBtdUDv3r2A61z2+/mJ3a2rzp6g2dkHS9Y8+g65RvNxv/rUS1eAftw23DhgjKre3qqhrlLF7w9/BkPu47EH7WG90j7QVVt4yf1h6FcLG3CFcjjco0ojJne0BaMM4ETg/zoSVM3T5V0ulT5W03R+Sn9up5orrabpXaOkt9tzwvy5GsDtaaGdmTt/OU9/fzlPz+/Y9+bT8itgGcT9j3jXTSY8ksYYyzU++aOrRrX++GUc9OMrj5uGIx8czlcGw4UjfnWwl8uopC8jB4xv87pzUjJ5J3ss74xOYk6wk25P4ufZY3knO5P/J+gbGM9Ps8fyTvZYftpqtNT1B6C1v/cn37Uoqs2uBWftZ9oxITStfjf9fHNAKlxrJNjGIhn/vJii1U9S9OikMK98K3LiuAa94gYy0DPLehsDk6z0anFyyR1WbrTQ4g410HrFsw8rg9NSSU8bZGqz+3R1UO1SjovebbI6UgN54zKXr0Gffv1Nk+xWBg+8PfzpZXdbA32/764FVsYpjmu0cDuJKaYaI1siiX3c9afd5/oXf4NertrSoIzfA4vttgBPfsGlK9eN2uFAz7s0Oa9DLysD3QW4AabfQ9XU4KSll5VU8/tpLLAKxw1X6g3x9zsmuBdajeD2zw5S5f9pcGATtSNXkvyNlbjWgF+j4Z2D3PhGN34olGzmpzzM0/f51a2aR3QCbp/jv43UR7z9wQhTO05ObnmXKw8+hDkGt/rg9kxxBmhvSyKPzTOmNQNes6u9wfnfJJHxL+bp8nBHJFtvEeWe4jcvgor7xmaG+qWU6yc3U77TNVoal5EKzhMB/uf0e5qqvk5SODcIOPgDzmdsZqi7H0Gu6WJnYLjT2a26eJY3L6RQWDiaBc+5D17hj8+c9Y6iHqlh65FrzHpuuOmca3yy9ajf9lYA/8PHDdMoGDydb144EvTuTKl9QvgfWp8+AbaJ8nP77QTfprSK3//+JHbzz+1nH7Dl4wnMC/GPAU9Lv9/OybSHuPf7y7nX7znPwqyQfjdN+nyHae1s81V+sRGwQmoG0zjIvvC6fctpqqnmesIgUs3b8fivLL9xmZqmPqQOTCV9ILi2vnEt3GrNGGHq9WXTquzwuFeVe3m3FLoW4lZZHV3VH6mgGu7dsrpLU001pKS22rKpogOjtIF+llqaajnn/h/9jcucq/yCwWn9Sff87PzNZ/V8RLUKXV8mMS2VRFpP19+o/5yLt6WS6N938/vgGc021aWaFy85LlJBou/zAc6p7j3I+7vU4t7RoAObRwd8P13bUoXFvcjN87X/jcYLl/nSlKkP/v3v4XfLR39bb5qav+Bv/19nWxLp2VzbVDW0Ct0d2r6q23yVognTSLqwmcdukhsDuOpcW5cBtN6+KlTjefrOhxl3dR/favMOVsOY92Qh2bYL7Cp6R2G1OwSqgYuiQIufIh0IQw2Z/n3pCYFVJJDYLQMQ6YF697e0cbyd7bNixv+wurway+CHeXVw2+UAPUOwEWzjuPOKZz+/UH0z/WHG9almR3u3Wv3KV8i2gePYHxVUu4Vxl6wANXDRYg5+kbgDVXvXCKcvnWlLpDtpZFUkovzvqmVwnqD89TU9q2i//5P8MgN2HH4xaDlAzxGk7rsj21P1+Q6v3hnPvrbel4wCVjw8Bhtw7g8v8vofw+6wdJJn+j7gXXtEpCdRWBURERGRmKUyABERERGJWQqrIiIiIhKzFFZFREREJGb1amqsp6UlvHsV+OtvG0pTYwM3bqiEXUREREQiRyOrIiIiIhKzFFZFREREJGYprIqIiIhIzOrV/imxYW5aLovSnby39zgvhvwqC2sn5ZLjualQM6UHS1jZHJUudrFCUlcswd6wgwOvr2//9Kk/Z0q+HRyllL6wnKvR72AXy2TeD5eQbboH8rn3l/P63u7rkYiIiHRejwmrHdPMyoN7XP9MzGJnlv9thcJktNFVgTdhcTGjB8RauHyK0UUFJAD1xfmc2t/d/XGZ9tgSsjnCplVvUd7dnREREZGIucnDqnjs/w4HIhEsp44lwVFKVUMO9jFPwf4QRnWjLo/Rdjj3voKqiIjIzUY1qxKWhDF2aLhA9SdVMGwsCd3dIYDMFAZ0dx9EREQkKmJ3ZNWSxtZJGdh8Djr9T4pYTeqTY2cwK8n7uOr4HhZfDPxczqQZ7PRcspw3DlayLVi//Z9vl3ea3bgaOUXFnkdXS1+jdNtW7+NLVfSd+1tycowr+tekumtV3c4Fq3H1v26gc58iaRjUF6+H/U9Rn19A0lSoN43Y9p37W3Iyyyh94QJ2U3v+/fbpc5vX7CxXLWtG2WtsYT4Lx7uLWivZteoV9vmf/sBSXv5HO1S+z7KX9kSwHyIiItIRsRlWE7PYmZVE1fE9FBqB0bXAynxSEq9PzyKhooTZlc3e103KZW1YgdUIvM7jzN5bZxxKY+ukGbxuBNYXT+xxLepqr2bV8/wez/NPjp3BoklAyIF1PadWu8JaKDWrfXOWkHNuBwdWr8cdOHMWP+UNfJ7pf2NBVsBWCkldUUBCe0Fx6lgSqDLqVNdTd66A0YFKAWw55BTlUF+c77r21J8zJf9hUku3Un3GHVSh6s18qs/g6Xe71/fRekGVbeY6imYaD5qOsOl5b1mAbfwSFlbtZPWq3UAei9fM5oHH8tj36u4QryciIiLdIQbDqoW1GUlQd9wzshnI3LQM7M3lvFFpSo0XyyltziUzyQKVIabVxAxyLHW8d7DOe6y5kj/WZTArJQku1gV/bYB+Oyp8g+yLFeV8ZdIg7rZUsi0ai7J8Ap4rQCYMGExfCGNRlh2bDa6WVbV5VsIYO5zbQb3x+OolB+S4SgHqfc50UPXm140gClTXcxU7tlTgDPQdaANHKfXu5zvU7zK2PL+cLQCZ81nx6Hga2lr9X7WT1Z5guptTVbMZNiCFDPCtc921gWW7QuqAiIiIdIEYDKtWEixQVd52SLTbLGDJYNH0DBb5P2mzAqElw7lWK2Bh1vQZzPJ/stnCXAhxRNTVb1t6LjvTWz+bYAm5S91gPVWl95GTs4QpOUuCTMW7SgCulnoD7dXSMq7m5LQqBYB6rp4xPTyznNLV3odXLzlgWCYJI/CMrLraLomhXQ9EREQkFsRgWA1D2PWgwdSFuX9rcI6KEgpDHdWNIVe3fZ0D2zCm7AuYUlTgW/861VhM5Q60Jn3D3BXgal09YMe+oNhblnBuBwdMNa0iIiIiEMNhNcFqgYve0Ge3WTAvsKpyNENSXJAazNBtczpZhJWUTo98OqlZjovXAAAgAElEQVRvBnsYo7oxyV3jOvXnTMn3jn4mjAl8QwFX/WmgUoBgCkmdYm+14EpEREQkkBjcuqqOk3VgS8/gSeOI/2p8gG2V5VSRxKxJacztzOUullPabCFnUpbnekE1N+HA4qqJbf0kK8vrICmLrWmBng/f1UsOsLkCY1frm+SKn67p/EL6DoCrZa2n6d2jpElTw2x/YIh/ZmTOZ8WadRSteZZ5meFdo0MeWMrLLz7Py//xEKO64HIiIiLStpgcWX3xRAkpk3I9daSOihJm12SwM8t8Vh2L9x7n9elZfnWr5u2rXDsGmGORZ9upuuPMPlGH6y5XJaw1Xc/NvH2Vq+lKCo/HsTPLVJdqLkW4eJzZx7N8n/c/JwxXt32dUwOLGW2aLg93RLLVFlE2Y4rfvAhqxDpyFuTQ1+eVVZxa/R3XaOmIXJJscLUuwHX3n6A+305CyKUAW6nemkvSAnc/glzTbWgCATa4ip5z9TRiJz5+BFNGw+lTXXlxERER8felrJzJf29paelUI8PtQ/ns81pu3LgRoW7Jzcu1TVXfVqG7I9tXRcesJ55nTloTh15dwy8UVkVERLpVDJYByE1txGC/EVzf41cvtb19VtSNfoipaUDlAQVVERGRGKCRVel6/nfVMtQX5xs3HOgOM3jqxZmkA42HfsYzm8+0+woRERGJPoVVEREREYlZKgMQERERkZilsCoiIiIiMUthVURERERilsKqiIiIiMQshVURERERiVkKqyIiIiISsxRWRURERCRm9eruDkhPkcm8Hy4hO879uIljG3/ElrLu7JOIiIjc7G6JkdUnx85g56Q05nZ3R3q0MrY8v5zVq5az+v3Ktk+d/jhFa55lXmbX9ExERERuXrdEWBURERGRnklhVURERERiVmzWrCZmsTML3ttbTsqkXHIsxvG648w+UWc60cJa8/M0U3qwhJXNAEm8Pj0Lu+fcDBZNz2CR8chRUUJhZTNY0tg6KYP643tYfNF9ruu1Ce5zgLlpuSxK+Zw3DjYzy9Suw3TOk2NnMIvjzK5JYWdWUoA+hcpVH5pR9hov1M2maGaacTxAnej0x03PA1U7Wf3qbt/m/M8Bzr2/nNf3mp9P8G07cz4rHh1Pg/m8dkx7bB0PeN9wsh9dR7b7QdMRNj3/FuXmFzywlJf/0Q6V77PspT2hXURERERuKbEZVgFIYtb0JBwVJcz2hMosXk90h0pvoJxthEUSs9g5KZe1B0tY2VzH4r2uAPTk2BnMspbzxsFKtnWmS5YMFk2HquN7mH3RuF7WXaytM4XRpCx2Wst5Y+9xtrnDdFYacztwbdv4JRRRya5Vy9mHEQbnzecvRujLmPcsC8fXe553h9yix/AG1sz5rJiZ5htOo2Tfq0Y/AoVfERERkQ6I6TKAquN7PKOWNDdTDyRYXcOoc9MysDeX83alacjyYjmlzRYykyytG4uIZkoPmkZgm5twYCHBfLlmcyhu5s81zWCJM43whqHpCJtWvWIEUTh3qQniEhgGQB4PjI/j3Pve56GMLQcqwX4H09yHhiZgo4mG8x3pQJTt2sCyJ3+oUVUREREJKoZHVpup95k6946UAthtFmOk0zu172GzAmHNu4fISY252eZKCve2szK+MxpqfKbNy7f8iNVbjAeZKQwAbDPXUTTT/4VNJGcCZcDenRybssQzJd8VI6wiIiIikRLDYTUEzRGY2u/h2g+fri2ntmCUERjh1nHkNV7QHL2IiIjEuJguA2hLlaMT0+s3g7IaGoABSaFvZrrvVdc+qbuqwJY5iYzo9U5EREQkInpsWN1WWU4VScwKYbN/V7AdxN2BSln9amFb7yIQq3az60gTtvFLWDw9nNdlkjwA3xKD8/U4iGPAUPcprp0AbB3tmtFexvh2gvQDS3n5xed5+T8eYlRHryUiIiI3tR5cBlDH4r3HeX16ll/dauutorZVlmC3zWDWpBnsNI55t5yqY/HxOnZm5bIz3fv6+qxcYv0GTOVbfsQmnmWhf92qafsq144Bcb4v9N/equwtthzJNLVTya5VOxm9ZrbpRXksXjPbWNzl4tmaKkB7L7yfQNHMJRSNN44F2rrqXD2N2ImPH8GU0XD6VIfeBhEREbmJfSkrZ/LfW1paOtXIcPtQPvu8lhs3bkSoW3KrmPXE88xJa+LQq2v4hcKqiIiI+OmxZQByExj9EFPTgMoDCqoiIiISUA8uA5CeawZPvTiTdKDx0M9YtvlMd3dIREREYpTKAEREREQkZqkMQERERERilsKqiIiIiMQshVURERERiVkRWWA1ferkkM5789dbI3E5EREREblFRGw3gJ/937fbfP67//rNSF1KRERERG4RKgMQERERkZilsCoiIiIiMSuiYXXNmqN8uvkon26uYU0kGxYRERGRW1JEw+qqVeMY+fA4tlR+zrxXG/hOJBsXERERkVtOVMoAVv3eTmPcFabdG43WRURERORWoZpVEREREYlZEdu6KlyjHl7FsolxNB76Gc9sPtNd3RARERGRGKaRVRERERGJWdEZWf0wjhP/VsWUB53woTXgKac3r2HZ5qhcXURERERuElEaWe3Ftx4bx9pLdXy6+Sh/ebolOpcRERERkZtalGpWnezcXEbS4bGMfHg4AN/91+hcSURERERuXtEZWb33Bkn040RJt63fEhEREZGbQLfvBkDl+yx7aU93dUNEREREYli37QZwuqbB9Y+0Mczqrk6IiIiISEzrvq2rdr3PocZuu7qIiIiI9ABRCavfyb1CPH05/2EbJz0wk4nx0Hjofd6LRidEREREpMeLaM3qmjVHmZcG0I8DG1JYFeik0Q/x3GM5xAMV//tD1u+KZA9ERERE5GYS0bC6atW4wAHV7NS7PPPku5G8rIiIiIjcpHS7VRERERGJWREbWf3uv34zUk2JiIiIiADwpaycyX9vadHtUEVEREQk9qgMQERERERilsKqiIiIiMQshVURERERiVkR3brKawIDV/8bqXHeI5d2PEX1nuhcLTK8fY6tvlqZse4extm8R87tLmbb1mhe8ws2bTzKnafGkfvCbdG8kLSjaN0hZl6M7PehaN0hCocDpLJ13mBWR6xlERGRyItKWLU9/m+kcpJPfvAGN6JxgbAYIbRhL8de+e/u7kzYxj5zD+Mo462lFdR20TWL1h1lMhn8OEaC6iNfm8Acu+vfzqMf8+i+a93boYjpw8oFdzI+3nvk7B8Os+K49/Hq/8lg5rKjlKyITGBduOIMhcMVUkVEpOeIQlj9J/rZ4dKOWAiq4TjMpaLDXOrubvhIZsxQOLe764KqN8wksKmLrhnMvdPuZNm4Ppz9w2FebnD9u+7SzRVUR1V8zENG+L532p0su/9OVtZ+zFr3N3x/Arnp1zk5p4pNU0ewcH9nrvkFU0c30HjIrqAqIiI9RuRrVkem0Dfijd6icq3Et39W5Eyt57GJDZzZHhujbh/u+5iH/tM10pg+oA9wjYauSu1Rd421bx72GSX+8GQ9TvowINnv1F8MZuvZBiYvqGdh13ZSRESk20WpZjWYwFPytsfXkzHgJJ8UuUZjbY+vJ4O9HDsxkuyCVOOsq1S/8QyXPvVrcsbTpnOg+fCvKXvnMIxcROaiO7C4n4ibTvaPp3vO89al+tfXBrkO0PsbzzFmgimKVwX4OkLtd4QkL72H+dlW74HzR3npOb9EVziOJ/JMCchRxlvLW4/WLpzSQHxTBq/+oq0LDmLjN4Zg9Tl4jSPvmEYDA0xvQ+spfPfIqUdVOQ/97nKAi/YhtT/QWM+HUQ6r5pKDoP3KyuDd+/v7nXSZ7f9Zzq88j/vzwvcyGO557P8eBZBswQrUBXjKVQ5QztxvJ7Cpre+PiIjITSZCYbX1gipLwXoGFhgPmrxBNGT26WQPOMknP/gpN9ztf2MRTaZ23OHRvCCq9zeeZuDIw1z69A3KfmDqW9CaVdP0/4ynyS5ICNgd2+PrybBXU/6Dn+IA4J9I/fF0slen+H5tIfS7ba0XVPXLy+eJPOOBKWiOfSaf/KG1FC/9EycASGbuhnE8sc57jivMwtE3i9lT4m1//oZ4ipceNV4H7iliLqUEnf43T8s/etx87BrV7hDmDrNV5Tz05mWfY94pfCPM8hkv/+fnfAi4w93GaYFqUvswIB6oumacGw1GuGxs3aekBm9/XGH2GkfeOewJno98bQJz+jdT4T7JCLNn/3CYh8zv0zcyeMQn0Pp6JLM/cJnjxwM8uT+OjxfAnYO+AGKjllhERKQrRCismgKfMaJ5tbMr6n0C7mGaPp0LE+LpDa5jIxdhn9CX5sO/9rnOjXd+Gvm605GLGGSHSzvcQRXgv6neMZKBBcOJG4l35LS9frfLyZ7lxewByE1n4YJMGgOt/s9NZ9JQOLfbHDhr2ba7lifyBjM2t4LakmTuy7Zy5difjKBqtL+1jOELMhlTCCc87V4nKQ7O7LMRUPIgHjWCqnkBUPqAPtBYbwS1Pqx80Aiq5pHIZAtWrnHaCHf3TstwBdU3P/eGz6wEhgNnA9WkJvchCXA2RK9e9ZGvGUHV3Cfjup6QnZVhBFXfUeTU/sDla96AawRV7/vUh3vTze9Ta/dOu9NoO1iYvY3zl2Dy6CYW0sF64qlN3Bk3gI8PKOyKiEjP0cVlABE0NB4LV6n+y+EuulY1n/uH7z2fcqlgOn2GAlGa5g9qWDz9qOWgf4jdeoFzeeNIGAZgJR4nZw87fc8pqeVsYSbDk6yA8dzUG65gFuRy996RgJXL7PEZ9fMLasn9GRUPZw/5TuU/ktkfGj8zpvCN4BY/hGXfG8Iyz1m+o5U+jOnxgEE2IvqTZQfn0cu+I7d+Idv363Cf4/c1G6Gb+yfw7v2m84KWOLhHp2m/TKCjptZTsqyc+KYMfjxvRLcvnBMREQlHzw2rEln7e1O3LPjT6QP6QNVnvqN+WUMYbw5qyZYAgdYVBD1T+O5w5zdC25Z7B0Z5cVVyH5K4xumT5jDch5UTfUN2an9wVvgGWleIbx1ofUZo2+AqK/Cvd23Dpd7hh839CeTuT3CF1i2HmLt9InNU9yoiIj1Ez72D1flGmunrGtXskmul0m+G3/EZIxnIVa6d74I++DvXyBWSGVPod7xwMMNwUn8OKHHSiJXhE3yXQ5GbzHAbNNaZR1xvp64JRmQ5CI0R5toJkY98zbXIqDNT+O6dAKq7cicAI4h7p/cDMEojOtq38ILqFwwdCI0Xbw//Qm774/i4CZIGfdHxNkRERLpYF4fVw1xvAAak0Ns44lq41IGmPn2Dz6tgYMFzDBzpPexaYBXgmvaRBKnGDOFaf6GhCQYWPG1q459ILUiFqpKorfRvU0ktZx0wLG8cYz0Hk5mblwzny4wa1Vo+OQ/9sscxI9d9jpUZhZn0c5TxgU8JwW3sPzUAhjdRFOya9gQeATx7hF6+jLPVSf3JynL9y1WH6fq3p+6z9jKnG2H4xEHcG9IXapQaVNW3EejyWLxmHUVrnmVeZkiNBrzOqDuMnQmyMnj3fjhb1fosa3p/o9/9ecG9K0Kjd3HVr8ouQ/wQvprV9rVWLghzRHVqE3fGQd3nqjcVEZFbS5eXAThe2culH09nzI/XA66tpj65OJcxI9t5YcC2nuKTbzzHmEXrcW8U1Xz415R96n/er6le/W9kGNcE89ZVrlX9A03np7rb82xN5VpAdv3x9T5tNB/+Ncfe6YKa2YBcC7Fqn8knf0M++cbRK8f+xEsbvBHyxHPF1C29h/kL8hm3wDgYaHsrYNOBATw2sZyZKxJZ7Xe3pF/9rpys72Uw53sTmIOxDdWlIbxrN40qHi9ne+YE5rjrNavKeegPCbx7P6YV7tdY+2Y5L3wvw69m1VwaEGDrq/gM3v0etN4iCqCShiYYFhdH9gN5bCnbHfK7CEDt52w8msCycXfy7jj3NT4jdUF/kircI8LXWPv7z9j4DXetrWuhVcODdzLKXBpwvJyXB97JMv+aVVNpwCNfc39t/T3vp1uwO3QVfbW8/W3FREREbkJfysqZ/PeWlpbu7ofEiIUrzvCDiZaI3Y7Tta1T6DWcHTb9cYpmpuE48hovbCmL5pW83FtyhVF/2yHfvsDJOc189HLn72C1aeNR7jwVmVu3ioiIdIWeW7MqUbHpBTsfNVVTuOVC8HKAgFxT2xunmTb5z8pgjh3OHopyUCWTeVPSgEo+ilZQzcrg3e9lGGUQ4Nmmq/Ez/ieaQXVqPSVzqmk8ZO9kUAX39lfxEy+G+b0VERHpPhpZlQA6PgLnfweocFb9d0TGvGdZOD4Omo6w6fm3KI/epVrfvSuMVf8dVbTuEDMvRnIk1PW9nRwHkBqxEXQREZFoUVgVERERkZilMgARERERiVkKqyIiIiISsxRWRURERCRmRSSsDkxMpFcv3blVRERERCJLI6siHbT7lVlhHY9WG515jYjElml5Bd3dBZGYo+FQuWWEGubyHn+vzTYCPR/seHdp62sN1v9wxNLXKtLTBAqk+3bvaPP8tp4XudkprMoto72AFUrgzHv8vVbnxUJQ9e9DuP0J9fxY+FpFejr/4NmZ0dSOvFbBV3oahdVImvpzpuSbdsQ/t4MDr6+P2uWSl97D/GzPFvVcOfYnNm1wRu16/h6965d8jR3801/f9h6clMF/fWskNsenvLqyhty19zLe5uTILz/k+wcDNPIvOey+P8X72PEpr64sZ0vUe+8rnBDmf14oI5XRDHhdFSDbvU643/uos7B2Ui45zuPMPlHX/umJWezMSoLmct44WMm2jlzS+jRvT+lP8a7VbOzI6zvLMoK7pwyh5sAHVDUHOymFsXkT4NgOQnlbupcN++T7SLfCxRjrb+JdBYxNBqjhxO7DXPQ/IWkC07JTaC7/gD9XODp8nfZGVSMaPC0juHvKKCy1h9n315rItdvWJdPv4+4Mm/dAF167s7w/A5i+z96fWZyn+fNHZwj6qyghU1iNpP3f4cB+gEJSVyzB3t75nVS74U+8BEAyczeMIz7K1zOblv4qX0up5He73vZ94qCT+m+B7bKTLThJuwzYAjbhCjf3p1D1h/dY+Jvo9tcdtAKNioI3TAY7z3xusGOhjrr6t2Pug/k5/7bb+rqCXStSQmo7nO99hDw5dgazrJ0Il5Hm/CnFNb/kaw8UQTcE1sQRrqARPKiCJX0Uic7T/Lkjwc8IYB6BPoyNwNMcY+Eykizp9zE2OUhIjaCbfvo/aQJ3Z0DFgR1t/szGItfPgIOKVn8YOqj6aAdVRmi9+y5HjwnfsUxhVcKXXMTTI+DQgVA/jB18HmBkbd74Idgcn/LrKAdVs0CBMtSwFyzQhhsS2wqzgfoSbv1pJPmH+fAF/t7HpIvHmb23881s/OsGhtqW8rW7vsnGv77d/gsiJoWUZLh4rK0PRhuJKTaaa2rCHu1xjYD5BQvLCO6+K4U/R+3D2P3BH0uM97D8SKeCanvT9zd9UAUSB6VAO39cxSbXz0DbfXdQdaaG9OxUEqmJ6h81twKFVQnTN3kpOw3nmQ38KISKg8oGJwwN/FzaAGvgJ6KsM3Wngc7rSGCNtFDDrVtHw3U42vre39wO8KNj9/D2lAJeqnmbJ2q75qohjZgmjSLdWsOJsKelg3w4N5/hz3/tQGdvBc4rNJNCsyP4e91l0/uhana4/ohxdEU5mQ2LFei6yrUIshJnheaaHtn5Himmw2rC4mJGD3M/clD15tepPmM+4ylGFxWQQJBzRqwjZ0EmdW9uhsIl2N1Tkq1qSY1pe/OUpaOU0heWc9V0qO/c35KTYzqpwzWp/tcL9LVFUOE4nshL9j52lPHW8gp8PkNz01m4IJN+rV5cS/HSo5xwP0y+kwwq+V3FgSAXq2GhKdxsee3DTtSfprDplRxTOUWg+kcrP1l7L+NN35ZQygpCqTv111Yg7cxIa3tth/Ja/75Equ3wRPJ735YkXp+eZfq5yGDR9AwWGY8cFSUUVnoTlcPhZG5aLovSLa4D/jWp7lpVt7pgNa7+123jXHc5wIinmVb7U/YFaG3Uw6tYNjGOxkM/45nNnf3lD23E1D2S1eFRHqsNC4Gv4V97aMkuYJrnkXnK3FszW2Ezv8Z8jqnuD4BA062uc1JqPuAE44O0E7hvHtGsj2w+w593h/59NY+0tjXqGijEhrPIqu0QXMOJWBrNDaXsxPh5SvQ8DvSzAt6fqWDPh8FiwwJt/iEikRWjYdUd5qo4tfo71LuPLV5H3zNGgByxjpwFOVD6Gge2bQWMMLmgGFtxPqf2u9uyYV+whPrifFc96dSfMyW/gNFT13vOSVi8BDullK72DadmruBcxanVXzf64wrKU1YMbhVq2+Z6XV9Tv5n6c6Ys+C1EIbC6FmHB0TeL2VMCYGXGunuYvyHeG0KNoMqxP/GSsUBr7DP55A/1C6rAoylp4DxKh7vpv6CKkTz2ykgeMx55gqaxWIe/fkjea64+zVtyL499axabhrrDqBFmz5eSt7LG1P4s/ivpQ/75teB/9XZkZLW98zsaEjtTd2oOyLeOOhbv3QOEVrNqS89lUd1xZu+twx04F41tZps7ZHqm/40FWQFbsbB2Uhb2oEG2tY01lXwtpT8jIGBYjaikUa4P4Zo2PjwtI0hvt0wgGPeU5ijuzhsVcLFTc8UH7Ksg5JrVxOwC10jw7jM0G0Fi7F0pRng0Tf8nTWBadvBZGEvGfdxde5h9u2twBxdvO4HKF4xwE2MLedwh0j39H04ZQE8qF2j1h4N1AtPy3A+8QbL1982oAc3r5/1jxPhZo/wD9hmzBZb0+7h7SgFx0ayZtvZzhdUoNS+txWRY7Tv3Yew2B1VvuoMqwFaqX9/qeZSQl0NfRyml27zHrm7bTFXmEuxjnoL93hHPenN43X+C+nw7fZMKga1AIX0HAA0XggfOEeuwD4P6YnN/1nOqeCxT8jNJGEHIIbPv3PtI8Os3+3dQNWUJSTmFVJ/ZGvzFYUvmvmwrV479yQiqAE72bC1j+IJMxhTCia3AsHj64eToYW+4O3GqlvyhVpJz4YTntVMYagPn53/q+Ifvb0rJM0Y9v79yFgX9A6/+//79xqpyU+Dc8toR1wrzUSlADfOWjMRODTvWmj5wflPKjlGzKEhPYR6BdxXo6FR+sIVR7teHK1A9aDjBs7tLD3oMn4BZx8k6sFstzIUwFmVZSbCAI5xpP+dlnIwjOxkIUApwevMalm0Ovbm2hFL7Z0kZgsV5uuMf4HWH2bfbCHruUdPOBD6f1zpodtLmyG1o7dRQUwuJpnYsNhs4T3PR02jrc8JiSSHF6qCmrT8MQmQeEfUPnOEG1p7C80eNe6TTGehnKIX0DBvN5eYRUAdVx06TMmUUKUlwsc5YUOg87bPbQnPFESpS7iN9UArUmdvtbP2z/2g/3t+DYDtC1FVzkQmkp9u42IkdISRWw+pAGzhKqQ8aAF0B82pZiV/A3Ep92cPYMwfTF0Ic7dxK9YEC7PkFTCkqCDj9T2oCfamiar/fS/efoD6/AFsqhDrU2HegDWw55BQVt35yYIT3D8i1Eo+Ts4f9PmBLajlbmMnwJKNg6FwjV0hm+AQrlBgjq6OTwVFmCqoAw0nokjJTK4P6g6Oixi9sOimpcDI+3co8jJrX85/yE79X/+R0DQX3x5MWoOVQp/KDPR+ojUDT8G21E2z1v//r26Og2pXqeK+imUXpuexMp41SgW4Q0oip+8O/A+HMh3ea2DXyNYFpkzu2PU+zX13kxb/uiMoIdLPDAclDSLSc8YyspiQT/nvh3tbJeZo/7/6g06Nq5hCqu1b5sdiwEOAPguYaapyjSLHZoA4sVgKUvji4WOMgPaWDf4wE5Q27rp99Zwi7Qbh+XxLvKmBaXuxtv9aTxGRY7XLuLaeM0gJXkDSXIERYoEDcnUqcNC6AYdn38MQG98Faipf61bVylnonpLRqoOdob7o9EjcOCLUP7V1DI6exZVtlCdsqMWpcs9g5nRD2ZG2mPsprMEIaMU1yrUgOf2FVcM0VH7DPMYFp2aNITzoTsx/CrlCcQvqUAtLdB2sPe6aNQ2/IqEG1jODuvIIu2ZrrZh1d7elco/WftR+ETSUx+7QQsVP+T3d3IJCrlxxgS6Bv0DO2crUB+mbm+p1TSEKmre0p/bacWU7p6nwOvFnKVewkTTWOV9f7PnabOpYEHDiqQ79E+19bBJU4acTqGjE1y01muA0a61yfoslLMxnmKOOtpcW85PnPt1bV5QDnHWAddI9p4UQ0OPn8MtjSU5jnc9xKbroVLjvZgnu1+WC+7/fq749KAUcjlW1coTNh0H8v1GC1qpGuI7216lJj2MXjzN67h9nH68AyiLstQc6z9sdKHeejGlbDWVhVfQtun2PDPsK1Mf++3Tu8/3WmVrW5hhqnEVi6gDuw3lKaHTRjIyXF7z22pJBidS9scpWOWFJS8P0VNHaucDqiVFPq3sUghPat/bBQQ02M/iHXk8RmWN32AfXYGb1inSnUGQusjEf1n1SBLYfRcws9Z3hqXXd38q5RqQn0NYfQMyXUOSAh/+emnQeeYnS+Hc59ENaiqMBfWzB5LF6zjqI161g8PcyvAYBaPjkP/bLHMSPXfczKjMJM+jnK+MBcHmuLJylAC/421lSCdSTTolwO8JPTNWAbyb8t8V5o3pLxrjsi/cH1QbPlyGc4SKFgpWms919yKBgKVQfbvwtWR4Jq3uPveYJoNEY+zW3ezKOqGfOepWjNOooey2v/5DZUOZrbDoxRNNfqKqOpCfKJ5VqMeDlohdCoh1fx8ovP8/ITMzreCWMrqoq2RgktI0hPdlBxpjOLiVIYO3lEq1BgH5ECztNUmD+Mje2PEgfFzhyMxdY92+R1hn89a6DAOi2voMP/dZgxsjzNZwV+pLnqii0Z47F7fuhs2LNdZRjun7eLn9eAdRRj0027UKSPdy02bPXzbsM+uYBpefeZ2pSeIkbLABwjpVEAABQlSURBVNZzanUVqSuWmGo7Xds7eUZM93+HA9XryFmwhCk5S4yDHZm699/+ynstbwjdSvULW7m6uJjRplrTq+YV/QTY2spm1MH6tLeeU6thdFGBX91qgO2rMlMY0EbPXSv2TQc80/jeVfwnniumbuk9zF+Qz7gFxnnnj/LSc94J/toNRzm67h7yN+ST73eNc7uLMa8Fo/ZjyilgYsY3IZobnv+mlLzzGfzXt+5l9yvugzXseLzUW6N6sJx/Puhk0ys5pnOcHPnlewFv7xmpkUn/mtNguwS0NXrb1oisv46O0nZ2O6xohuXyunogDuxfYV7mbraUdaydbZUl2G0zmDVpBjuNY/5bV7XHZ1srAIsxxU8zpQdLWNkMWNLYOinD74Zcdby39zgvBmrU+jT5KVB+LPC2VQCnaxqAOEgbwyz20JF3O5StqFxlAp+ZFhh1RA0njtm4O6/AN7AGXGBVw4kDp7l7inmVd7h3e/LfjgjvNH5Yi7rci3LMfelonyKrrVX/gY4FOrc792K1kBLVhUMX/7qDPxsr+33KN8zf+7rD7Dswgrun3Me0DPfBaH9ftcdqd/hSVs7kv7e0tHSqkYGJiVy5fJnOtiPdY+wz+eT3b733arDtq0gu4r+zkzh04LGQbgzQE7V1m9S2pv1DDab+x0MJh+0t2grn2qGIbmDNZN4Pl5AdV8muVa9Ef2unLjWFZ6csZaJjB//U5h90I/j2f3yXifFVbH9yQ/hhNaQtolyhz9LJ+9P3XMG+/s5sX+Xd37Wz72moQTXWuLefuhUXDHm31Aphr9akCUzLplv/KLpZxGQZgHQlK8n92zjuaKTV/4tqV/O7GgsTp7zKsz1vdi0kwUY421qU1d4uAm0dDyUUhnIr2HBe05nrddr02WTHgePIzpssqMKjdy1lorWS37U38/DATCbGQ+Oh9zs0qupeWFURwsKqNssEbmbG5u3BjvvvSBAao1YyY1Snp8EDhdJYD6runSValX/c5Fwr+guMkB7aTQUSB6UYdzKTztLIqgDJzN0wjmH+h/3KBfw9etcv+RrtjR6JmOWxeM1shgHn3l/O63u7uz8RZn2at6f0p3jXajYGO2f0Qzz3WA7xQMX//pD1u7qwf7ci/7sgGTo3Kmjec7N7ywm6UuJdBYxNJrp3/urxbs2fjWhTWBURERGRmKUyABERERGJWQqrIiIiIhKzFFZFREREJGYprIqIiIhIzFJYFREREZGYpbAqIiIiIjFLYVVEREREYpbCqoiIiIjErF7d3YGu8OTYGcyylvPGwUq2dXdnYpr77kJNHNv4I7aUdXd/uta0x9bxgN372HHkNV641d4EERGRGHNLhFVpnyuoVXLsSBPDxnd3b7pexrxneWDAETateotygOmPUzRzCYvrbsJbgoqIiPQgKgMQV1BjJ6tXvcJfursz3aR8y49Y/bwRVAH27uRYEwwbk9ed3RIREbnlxebIamIWO7Pgvb3lpEzKJcdiHK87zuwTdaYTLaw1P08zpQdLWNkMkMTr07PwzupmsGh6BouMR46KEgorm8GSxtZJGdQf38Pii+5zXa9NcJ8DzE3LZVHK57xxsJlZpnYdpnOeHDuDWRxndk0KO7OSAvQpHJnM++ESsuO8RwJNS/tPXQc8N3M+Kx4dj839ZNMRNpmCWfmWH7E63O61J+D7Gi53WYLXuff9Rzpbn+PiV8ow/XGKZqZ5n67ayepXd7ffhQEpZIA3xAIwg6denEk6VWx/cgPvhfjViIiISPhiM6wCkMSs6Uk4KkqY7QmVWbye6A4/3kA52wiLJGaxc1Iuaw+WsLK5jsV79wARrFm1ZLBoOlQd38Psi8b1su5ibZ0pjCZlsdNazht7j7PNHaaz0pgb5rWnPTYftixntU/Y8p2Wdk/d71r1CvvAE0oxB9Xpj1M0M4FjG5d7gtu0x9ax8If4BNbYk8m8H97BqVXLed04kjHvWRbOfJZ5590h1AiqpuCZMe9ZFo7HJ6i6jtWza9Vy1/tk/CFQ9BhtBNY0BsQBVTUx/B6JiIjc/GK6DKDq+B7PqCXNzdQDCVbXMOrctAzszeW8XWkasrxYTmmzhcwkS+vGIqKZ0oOmkcLmJhxYSDBfrtkcipv5c00zWOIIMPjZpn2v+i1w2nuSc8CApEzjQCbJA4Cqk0YAA8oOUt4EtoFpnnPmTUnDceQtn7b27TqCIy6Tf8gkhpWx5flXvF8bUH6kDAdxDBhqHMhMYQBw7pPdwc8hjwfGx3HufXNbZWw5UAn2O5gW5OrTHjMWmu0KFGb3sP7JH7JMo6oiIiJRF8Mjq83U+0yde0dKAew2izHS6Z3a97BZgbDn3UPgpMbcbHMlhXsro3AdWk/dGxyef5VR24ARuHYbI6uTyIiDcwfcAcs1Omgbv4SiAIumBgwFIrjYfW5aLovSff9QsGXNYKe776aSiZD4T90bGtz/KKuhAaOudK8xsjo+ExuVfOQuFTACrW3mOopm+rfURHImrd6DjHnP8oCdViFfREREul4Mh9UQNN+k21G5g6pPXaVrynuA6bRzl5rAnsYDa9bxgHHMceS1VqvXu2oLpm2VJWxzZ/fO1qwaQTVQ7a1XJQ1NMMw+m6I1s41jTRzb6DsiC4FqXQNzlQzEQdVObVslIiISA3psWK1yNENS+NPrPcLQBGxBp6Dd3NPbbYUwI8wNTCOiQ6hdICMpAajko7YC4/TZZMeZanYDMUZfXeUT7bwH0x/3BNWQFl+JiIhI1MV0zWpbtlWWU0USsyalMbedc6sczWAZxN2BSln9amFb7yLQDc7Xt6q7DLzi3VzDGoi7NnM2K+bFdIFqK+V19UCCa5oegpZF+JwT0G52HWnCNn4Ji6e3cVrmfFbMTAsxqM7gqRef5+UXV/Ht0e2cKiIiIp3ypaycyX9vaWnpVCMDExO5cvkynW3HIzGLnVnWELZ8ChQsA28V9eTYGcxK8j72qZ9MzPLbauqvkJVLZo3f1lXpTt7be5wXg/Qm0K4DobwuEM90tOHc+6/RMGUJGWX+K/1b13T6b00V8DzzOUGDIN06yui7LVcTxzb+kQGPzob3/XdEaP1a/9IH//cTMH1trbcJM2s9ej2Cb//Hd5kYD42HfsYzm8907AsUERGRdsVmWJX2GQGzwT9IBdq+6ibl3ZLKtwwg0PZVEffAUl7+R7vCqoiISJT12DKAW97QhMAjocbxhrqbO6gCDBsYeCjUdbye2qi9BSP49n12oIr9CqoiIiJRpZHVHizg1Lb/nZtuakGm7/3LICJo1hPPMycNaCzl5f/3XU5H4RoiIiLipbAqIiIiIjFLZQAiIiIiErMUVkVEREQkZimsioiIiEjMisgdrC5d7Mj9NEVERERE2qaRVRERERGJWQqrIiIiIhKzFFZFREREJGZFNKwWrTvEyS2HOLnlAkWRbFhEREREbkkRDaurl0/kjnkT2Xq2msKN9SyMZOMiIiIicsuJShnA6v/JoDGugalTo9G6iIiIiNwqVLMqIiIiIjFLYVVEREREYpbCqoiIiIjErOiE1f1xfNzUwOSvOqLSvIiIiIjcGqI0snobCx+dyI8v1nByyyFKVnwRncuIiIiIyE2tV3SadbB9yyckHRrHHfNGROcSIiIiInLTi87I6tQbJDGAjw/cFpXmRUREROTWoAVWIiIiIhKzFFZFREREJGYprIqIiIhIzIpKWF04pYF4LJzfH43WRURERORWEdHdAIrWHaJwOMAAPnp5MKsj2biIiIiI3HK+lJUz+e8tLS3d3Q8RERERkVZUsyoiIiIiMUthVURERERilsKqiIiIiMQshVURERERiVkKq9Km3a/M6u4uiIiIyC0soltXSc8UKJDmPf5em+e39byIiIhIpCisSqvg2ZnR1I68VsFXREREgolSWC0kdcUS7DbvkfrifE7pjlZAMnM3jGOY53EtxUuPcsLnHCsz1t3DOM/75+Tom39iT0k7TX/7AifnwNZ55hsypLDplRzs1LDj8VJYOYuCoVD1h/dY+Jvwe9/eqGqkguf3zf0kh933p8D5UvLW1kSk/VvK1HpKll3n/Xm6UYeIiPQ8UQmrCYuXYKeU0tXLuRqNC3Qb/xAJ53YXs21rOG3Usm1pMQDJS+9hfnagc5zsWV7MHoDCcTyRZ22/2an1lMyp5sz2iX6BxMElB9hppBKgwQlDQ2gvgK6c/q9scMJQuHQeoBEHKdjae1FnDVrLxonp4DjC63vX8lHAkx7h3+fMwY6TY3sf5SVHN/fJ/bxboPP2J/D+Vw9RuAVQYBURkR4mCmH1KZKGQX3xTRZUc9NZuCCTfueP8tLyWs/hsc/cw4zcEEY9o8rB9mXlcGgcc34RyvlOIwR6tTd9Hwt1qo6GaCVDI4BeOMIxBwT8+wF46B/eZdbgCo6dcmIfHaWuhNMn20pemZjMsb0PGaHZ9ZrF//AIH/3lVz6nrl4+jqEbj1K4Lo7Vy6Me+0VERCIm8rsBjBhM34g32t2szCjMpJ+jjLeeq/V55sRz3R1UoWjdJ4xoyuDVF25r99wtdcEDX97j73n+C/RctznopD5qjd/LE9PnwKGHePQvHwY9a/LIjcxiO49uXxlkxLXr+4RjLY9vN4/u/oqdp5wweCwPtTr5Nha+mUHj8E/Y/u2odFpERCQqumWBVd+5vyUnxzyXvoMDr6/3PWnqz5mSb/c+dpRS+kI4o7WuKfvh5Uc5mzGOcTa4cuxP/C/jmJ9thfNHeem5Ws9UfKuaUGMktXF3MdvOJTPcBud2V1Ab9HqGwnE8kZdsOhCoJjWSHIwfDme2J7Ap4PNOvr/SFDR/U0peCLWq5pHWtkZdA4XYcBZZBQvBW177kC2eRzUsjFpY/pCX9rYRCA0fffpoF4RUt9D6FFwyg22A/98l+xN4/6vlFE6rZ+EvAv+8jHp4FcsmxtF46Gc8s/lMJ/ogIiISGREKq60XVPXNL2ZKvvHAFDQTFhczelgVp1Z/3Rgte4rRRQVMWTHYc44rzELVm/lUn/G2n1P0c06t/k5Yo2z9sseRsLuYt5LuYX7GOP7xchkv7R7ME3mZzMitZc+GMs5tGMfwCVYocXpelzxhMP0cZfzvVqAwnn44OXuunYvlprNw9AVeWnrUOOAKzPnr0qlbHkLQ7YhvNzGCAXxUEdlm3SHSPf0fThlAd5cL3MrS4q1ABReCDKCvPp5K4ZzrZHRpr0RERDouQmF1K9UvbKUaYMQ6chbkcDXQ6v8R67APg/pic+Bcz6nisUzJzyRhBFSfeQp7jo2rpa8ZQdVof2suSQtySJoK9eHsKuAo44OtwFLABme31sKwwaYTavnkPORnZzIW9whoMvdlW7lyrDa8gFlSwSafkgAnJ8qdjMuOJwmiElYXDmqGpgHsj8BOC+YRUf/AGW5glW4waC2zBkPzqe28G+ycittppJzx3x4MAeqbT29ew7LN0eykiIhIeLq2DCA1gb5UUeUfrPafoD6/AFsqwGD64qCu1G+J/ZkS6hw5JCUVAmEsv7/spBZwTcw7qS0B075RAJzYVcakBZmMKYQTW4HCwQyjluINTv/W2jX2mXzyh/ofDb+dUGUkNgADOt2OOYTqrlU9kG0lrxi7Bvz6086UEIiIiMQW3W4VoKSWsw4YNtoVaceOTubKsTJvnem5Rq5gJWFY0BZcr3smn/yhTo6+WcxLS13/vXUsekEVoPxi54NqqNyjqxJjbCt5Zfp4LFTwXtAtt8wGUBfhshEREZFo6dqwWl3PVewkTfU7PnUsCThwVANnLnAVG0k5hb7njMglyQZX68La1DRETvaU1MLQwYwlmTFDazloHlV1h9ncdJKDtmEluT9wvqxLdwfY9LkF4hqY6v+eRokCa6x5hH93B9XtK4NP/7ulXyceC+d1gw4REekhurYMwJjKt+f/nIT93/EusMq3w7kdRo3qeurOFTA652FSS7d6F1gV5tDXUdq6DjZzPiseHY+NJo5t/BFbyjrYt60XOJc3jvwNyXD+KNt8nnSF2XF5mcx/xslLz/nus5q860/sKXFSexnobyUZV32qa6cBK9EsA+AXcZyZU82dU76A/e1vXdVR5nrVYPWrnQmxHa+FzWPxmtkM6+z3P6K6qk+uLa7soQZVoCirGpoyKA/yvHs3ACrfZ9lLeyLZWRERkQ7p4q2rXAuxri4uZnRRsefo1dLXOGC6DVT96/mUzv0tOQuK8WxeFWh7K4ChCRG6s1EtHxxzurax2hVgKdTWo7y01XWr1Cc2eA+f213MNmMk9cRzRxmzYRzzN2S6DjjKeGt3PPPzTO24by7gOWAlf0M++bi21tq0wUnrW7LCuAX5jFuAZ8stLxtHzkLhxIsU0fG7E7W16j/QsUDnds/iq0oammBYXBzZD+SxpWx32C1MHrmRxaPNd/Uaz+I577IYqDr0EP/+Oaapdq/s6e+yEeDCdh712YS/a/o0eeSjZNsA0pk15118/lRo1Sdgaj0z29zmDE7XNABxkDaGWexBy+lERKS7fSkrZ/LfW1paursfMSF56T3Mz7jAW9HaZipqHGzf8glJh8aRG8KNAYIJNajGnOmPUzQzDceR13ghNoZWY7BPX7Bp41EmXxrDHW3ewWoE3/6P7zIxvortT25QWBURkW6nBVZuheNco6pbe1pQBbAxZ3sq8ROPUrLiiw63EnN3rgpJJvOmpAGVfBQToRBisU9F644yOS6Vre3davWBmUyMh8ZD7yuoiohITOiWO1jFEu9WU87Wd7HqSX4xmDuAk3M6Vw7Qk2TMe5aF4+Og6QibVr0VtA6zK8Vin1zT/6lsndfGz8Xoh3jusRzigYr//SHrd3Vh/0RERNqgMgARERERiVkqAxARERGRmKWwKiIiIiIx6/+oBEBEREREYpVGVkVEREQkZv3/B1dzRvWU6rcAAAAASUVORK5CYII=;" parent="1" vertex="1">
                    <mxGeometry x="72" y="60" width="683" height="438" as="geometry"/>
                </mxCell>
                <mxCell id="4" value="&lt;div style=&quot;text-align: left;&quot;&gt;&lt;span style=&quot;font-size: 24px;&quot;&gt;&lt;span style=&quot;&quot;&gt;&#9;&lt;/span&gt;&lt;span style=&quot;white-space: pre;&quot;&gt;&#9;&lt;/span&gt;1、call、apply只是临时的修改一次，也就是call和apply方法的那一次；当再次调用原函数的时候，它的指向还是原来的指向。&lt;/span&gt;&lt;br&gt;&lt;/div&gt;&lt;div style=&quot;text-align: left;&quot;&gt;&lt;span style=&quot;font-size: 24px;&quot;&gt;&lt;span style=&quot;&quot;&gt;&#9;&lt;/span&gt;&lt;div&gt;&lt;span style=&quot;white-space: pre;&quot;&gt;&#9;&lt;/span&gt;2、bind是永久修改函数this指向，但是它修改的不是原来的函数；而是返回一个修改过后新的函数，此函数的this永远被改变了，绑定了就修改不了。&lt;/div&gt;&lt;/span&gt;&lt;/div&gt;" style="text;strokeColor=none;align=center;fillColor=none;html=1;verticalAlign=middle;whiteSpace=wrap;rounded=0;fontSize=14;fontColor=#FF3333;labelBackgroundColor=#FFFF00;" vertex="1" parent="1">
                    <mxGeometry x="144" y="900" width="540" height="210" as="geometry"/>
                </mxCell>
                <mxCell id="5" value="" style="shape=image;verticalLabelPosition=bottom;labelBackgroundColor=default;verticalAlign=top;aspect=fixed;imageAspect=0;image=data:image/png,iVBORw0KGgoAAAANSUhEUgAAAPwAAAEdCAYAAAAoxAr0AAAAAXNSR0IArs4c6QAAAARnQU1BAACxjwv8YQUAAAAJcEhZcwAADsMAAA7DAcdvqGQAAB6LSURBVHhe7Z3fixZHusfnX/BuwTsvFi9CTILkLCYYXXfD7pioYXBHF7JkNVFiTDQXbggiMSEwmR3ihUnAiJ6EMydKkNFFws7mzIWH5EIwC4fAssIinIVwroP7Dzyn61e/1dVPddfbXW93v299Lz7MvP1UV/er76eep+rt7pnb+sh2AgCkAYQHICEgPAAJAeEBSAgID0BCQHgAEgLCA5AQ0YV/9P2v6Td//mbEpffYdoPi9evqXL/8lB7l4n1x/ihd+vbtEesHaSfXLpAb63NE61ud7dvo7r05erBib2uL6pPuZ9zbQstsG9AHcYWX4nxNT73AxPog9HyGKPzRg7ScSX72PBNrwPLqpkzAzXSDiW1d2SzljCW9HFgg+iCJKvz2SwPL6EMbgMZg5ydvtM7oOVLoTXT3BBPTVA4IY7GVHkQcPEBcIgp/jJ76EsLHYuF6+xJeoQR8uLqNidnoMrxU8o8LhB8ynQkvs79TMqv5/nXabrZJQcXr92iPtQ7w3PvH8n1yXviUnrPa2MeVx7JjNvY5mFLe4B2siudTGkTkuYht+t+gtr96KoWXc/ujtPDIPJ215vjLnzxTbiuze2DmDqgE6oHwQ6a18KVFugIjMcKFL+6n2jiC6XaFgSDbtud1q03eztmXpWKw0gOLfSzznvPjWYNPvk2fY+mcqnAX6Rzy+Xze7g169ajaJqcA1mvDePPpGLJC+CEzwAzvCKplGomjs21I9owgPHfepfalcxSo82SrkwDqM7wjN7vIp8r0+nLeEKGsH6eiAJ0zfcKzcnloLbzazkkrz928n8EKHzp/N7QQXq/0t18DAJMEwktmVfhmGT68PUOUdQAwKaa2pA8SqbXw017SYw4PinQmvCu3ep21H1v40b4FwbJ9i8Jl6H3rpas4d3lOxT7U8a3zHLDwY2VcrNLPPJ0Jn8czCSSinZRpfOFHbZ3+7LivnZWtR4OOC38Oo7h1zlZ8kMJrAevn1hEW7CQQfshEFB4MloDMjSvt0gDCJ4Kcy/uk1yvscSTVlQKupR8kED4hurtbTk8jBBB/UEB4ABICwgOQEBAegISA8AAkRGvhfzV/gB59YgcbAwAMCwgPQEJAeAASAsIDkBAQfmic+J5+f+vHERev8e0ioZ6U83YO+5isCfLHw3+nfxz+kI1V8eniGfrnkQU6y8TK/Jq+OZm1P/ka/elJLh7C63Ttlb/TX37OxaYHCD9YPqA9q5MXfoR6Pl6Xwh9//q/0j9Pr9EcmtnXXS5WCdi98xs/Xs/Odbukh/GCZceGlPH+la//GxARRhY9H5SA1BUD4wTLLwn9If8ky5f88/zoT0wxUeFPaN5mGDIEZF15Lk8+Jv6cdbht3zrx6hx4vxcV+12i/1e7QOx8U+ykdK8PtK+Pxd34otvEKXSe8e7wfaM9+rl0oNcLLe/BHc332Xn19T36hnUQ8UttqJ7M7nyWlyLL8ZrAEl+0Wf60HBtPmJfrU6mtUyvvihp30pyN2u4yqwaSuOjl9lTY2Nmjjyhk+3iMzLLwWtCBdts0SSMlni2IksgaGfEAYtSvvt512XHSPVUa2KQw63DkaqoRX+xUGHXmebaT3C19+BPYz9Oq6I7KW3d5fPsTDlT1DLtS9cp2OO9sLhGT4gphaWo+oZ/e+lrXnhR+/WlAVincuD+G7pyyXCyONYP8dOpRt32/uG+dEctvUZuOM0j4ar6j+PuWAUxokVPty5RGKT3jPdvcJO9xTeLhtuiSuLOcFDUr6Kqn9MT1QiGqhFPMxvWX9jAofKqBftFycIOEz8kogg8vYMs4NQGrgKQ0EFe9BDWYeqt5zJVViu9IKVJbP2/syfKn0D5i/CzoTPsOeFgRlegjPxvqjB+GdmBLQnRpEFL5m+jA+LYXX+1fO3SVDy/AWTy7Q34z4lW0D38MAme2SvlKKmCU9g9vGtw/Xv8QvvFpDqJquNKFdST/OX7uNNoePLbxBi//NLiYmqZnDD5iZFT7PtAVhMsmt16o0tmXTktkDRVPhS/vpvguiqkGHr0T8wuf7BWX5t+jC7Tt0I+PCSS5u8AlvFt+YRTtLcLWwx2V0hrpVboGW7m97d7LxiQpfM9gEr9KvrdA+Lt4jsyu8RIuRU86KtV+TBQnvHkfAZe3y/NutMErnk+P2F3jMAxfoswrhlcwcRXndS3AvXZ8v9DNauS9TfnS2ypC1c2B7bi2wBA8SvlCiFxkNJO5Xd4IK2UPm7wsrtCaE37hJSwtMvEdmXHjQFb7n6Pu+mgvK8gMk9Eq7U1cgPJhZyiV+9XaFnMtPk/RykAqYu5sMj+/hwezCrdJnlEr/IlL6qfh6S5Xy1bKfocuylN+gtaVFJt4/EB6AhIDwACQEhAcgIeZ+tnOeAABpAOHBoDj84itjbeeoahurH8E4fQ0FCA8GgxDIwMXcbT6q2o7TjyBmX0MAwoNeEdLYcG0EoXLV9Rfaj8HXftx+hkIc4T/6qfrTwBn/+xETByCAKkHdnz5ixJvC9Tc04mZ4Kf5P6Ls/MDFgsZ/2HhYfkt/RL5n4Lw+K2BHa+4tybBgcpBeYD/zhw7+lnXkb8x598TKijW+bHePa1W33wbWfNuTn5eBBfrvzbx65pN9D3303R//6cg8TAwV+8Vs6KD507n+U3n7wwP7i9kGhhH9hnov50AOA8wHkJBTYcfunu919LX7auG19v7uY/W187bjtXQLhpwQuk3P/ScOjifAZ878rvV8bVx77dVXMJbSfSffRFcMW/u3/UPcKf36ejyeFLo3Nf5bO7mWR3BLakYbdT+0zmUqhjfD8NMa8N3cb93sdof1U9Rmjj64IEl5+Ro5A+L7ZeeBI9qFRArPZnSnx1T6WcD0JL84hp7YqqT4fuy/z2o1zv9vbONz2vt9dzP42doz7vRn2vyU/GNYRLvwrsYWfp4tf/oTo/k/pNhMDHGZue0SOwG65yw4CZp/KymCSwrv4FiGdhTvPoGCkcX/a2Nu4uI0bF6992O1s3Jj92vf7+Dj/PoLagbNMr8JL/vAY/Ut8TffdY3SRi4MistTl/tPUB4KTVmZ55z+zP+Ez2HMoYlcz9nYjjfvTpirm4raxX/t+d4nRRz1MpdQgy/cq/O3/gujjo/7jy7JMn/DVx9MZzfpwjitP2zYh+wtEOxc7xv0+PlOf4bFK3wyf8M5/Wo4jzhCEr1mBV/gHMEGdPKFymXZc+3H78L2u2x6OneVbzOE9n5H837o34c2i3a2P6LdcPEn8wpty35akXBq7co8+RJxc8gPiiTVCf5i4LGOjjuv/UFfJUxVzEW197UP7cdu17W+iMAN+6TPSm/AvfUS35GOA/kQfvsTEk6RCeIERKoeRxqwDSMR/tD+bqg+Dp58QSufDZPZSm4yaAUG04bZx26uoah/al2nn/vTFe6fuM9Kb8BlvfQ7h+0VXAA3mi5PElsd8cO14DEL7dM/FjtVtHzJxhder85U30JgMj+/he8NkeG9FAWaWOMJbd8v5s/t5+ndZym/QrQ+PM3EwcfKyr25xDcwqkUt6AMCQgfAAJASEByAhIDwACdH6ufQAgOkBwgOQEBAegISA8AAkRHThd37yxlh/LriabXT33hw9XN1W3H5iCz28v5lu2Nu65MlFevHUm/Tsk0wsZy8tnDpHC7u5WAC7j9HxbP/jLy/SE1y8EeqcXnx+FxMDKRBX+PNHM8nfoFePMrEG3FifI7q3hZZ9sZ6kf/pwJuLhvWzM8MTzb7aTFcKDCRBV+IXrbTP6iOXVTTVCq+xP61uZ2CQJydy76NmXhygWhE+diMI/Q6+uRxJeluxz9GCFidmEtotIUOaW2fkYPc3FegXCp05nwufZX5b92e8SvvyX2d1TyrtUlf2CfUs35Q07a0uLbHw8wjI3V/JXTQMKg4gp5Q3cPvmAogQ2bbnzkse12nDt5PHtNtYxKwe4wQ5swEdr4UuLdAVGQkvhxbb1g7RT7qsHiPy1YcxSfWVzZekfVXj5Aa9ZrJMLeuWSX4rnEYcfDNTg4hdeyDk6FyWtfW56/8IxyxleDQi2tHoQ0fupfnmpKwcDMEi6zfCO3GqwOEoL1ratj2ylB+OU6R2W9VVZ2uCToLC9sMrvqxrqhHcGHnegYQcnR3jP4FTYV/5uhFf7m/Yh/x5gWAxP+HEF7kp4nxwFyhk0xxJHZU3TTold7red8PzA45xfQeZyO9mXPTjJ9qNzEsKz7xUMlhnJ8Jvo7gkmFpGg8tUrUIYlztOHs5+7s9eyv2LWHDEQ4a3fRZ8Lu8VrsY+vMgFDZoDCx53DxyHsw11d4gpRhKTZTymi6FOL78oriSC8K7Nuk78PZ5+cQv/qPBZ2i5+qP/E+lfjMvmDQDFD4kO/gR4Su0m9cOcPGg6jK3AYrg7NxM2hkkhvhVBbOXrN9txPeJ/doKiHa6WMUjq9Eto8rS/fsPPNt4vjyvKveLxgigxTezMtLl9S6hMzfT19Vwm9cpVNcPICQxamQkl/2Y0tiJLT2U5lZtHOx9gsRPm9n9hdS60HHqVTUeY1w4+acRn3rQaFuEASDI6LwcYl3pd0iLa21EJ4TqYQSwBUFgKExWOFzoT3SB19LrzN80+/hQzJ3UMkPwAAYsPACJX2ju+UWVmhNlvIbdPk0EwcgQQYuPAAgJhAegISA8AAkBIQHICEgPAAJAeEBSAgID0BCQHgAEgLCA5AQEB6AhIDwACQEhAcgISA8AAkB4QFICAgPQEJAeAASAsIDkBAQHoCEgPAAJASEByAhIDwACQHhAUgICA9AQkB4ABICwgOQEBAegISA8AAkBIQHICEgPAAJAeEBSAgID0BCQPgY7L9Dh279SPtPMDEfep/f3/qednDxPljZTHR/TvJghYmDqWe2hX/9Ov3mz1/TUy8wsZjMgvAnttBDiD7zQPgYNBF+YCyvbiK6t4WWmRiYHSB8DCA8mBIiCn+Mnvrym0www3Xa7raRAlptvvyUHi3FxX7v0R6r3XPvHyv2UzpWhtXX9ktOzMY9ZhDXaL8svw0/0J79VlwKL7Z9QHtWrXYXr1l9bKcdF62YYfUOPW616QsInwaRhNeCFmTKtl16L2/z6PtfZ8LZ2dZIaw0M+YAwalfeTwsdIm6MDK+z96F3Psi3Pf7OD1LWPKPn8/HytqqsLwcACA86JIrwKqMyGT1HDQilTP3Cp/Rctn3P6/o1J6jbxgwU1mDiJYLwvJQ6k5sM7pFb7utkeZumwp/d+xr98+QZnsVfs/tUs43u3pujh6vbmBiYJSIIHyCglJYTT+2bDwRBwmfklUBNpm8tvBLbzu4GmeWNrB7hC20Y+s/wSnS6v4nuVlQiYHaYTuGdmJLft2bQn/B1QvcvvEGLv76ViYFZIl5JXzmnjlnSM/jatBbeJ2VISe+0YRhOSY85fCrEWbQzmbaQ5YuLdmqeb8unKwN7oGgqvE9svW95lX8MTnwvF+PKi3bWSj0jfKkNw3AyPIRPhTjCS/RKfU65xFYr7lYbdxoQJLx7HEFFFpd9Wm1DVvddtND5V2mlq+Pcr+24NmUgPOiaiMKDcZHCV5T8XQLh0wDCd4WoEmy5PQt9vaFvnMG19LMNhO8QNa8flf2DkV0jszzulptpIDwACQHhAUgICA9AQkB4ABKitfBP7foVPfLYz9gYAGBYQPhE+b//PstuB7MNhJ9hhNQudsxu69sGZgsInxBthBexceH6Af0C4aeaZ+irr4RcL9MVNl7EltAVsktBr/ynOOfT9NURPg4mB4SfauII36XsAgjfHxB+qqkXXshsY2+3f3YJhO8PCD/lSHm++g2dY2ICn9B9iG4499Hp7PhhVQmIy4wKv0hLaxu0trRI+5Zu0sbGhuYqnXLbnr5qxd02Z+hytu3yafVTxC+f3k6nrqjfRf92X2a7QbS144b5d2/Tjdt36LN3D7HxmLhii9ch2PuMu6+A2x/0z0wLL8W7ckZv09LmrzMWVmjNfm32W1uhffY+GzdpaUEJvbZ20xpIzOCg93P79kjfp/DudsiZFrMtfEFmnYFzmXmKIhcHCZXBVazQTlYJdmWgkO2dc+gak3EN9nbudzDbJC+8ktilKLwp3e39beHV724fmpoBpksgPEhaeCW7KtdNGy7DhwlfzvBDo0pySJ8GCQvPt2kivCrpiwPHEKnL6pB+9kGGt14ribNt4wpvjheY5btctLPhhHcl9w0ETXH7CuX4x3d6+TeadRKfw+tFOYOIFRbgQoUXGOmLDGWV3pWvSsg2osbC/BvduP05HWfioBkzKjyw4QQegtTVvEUXhPBfXKB5Ng6aAOHBIDEZ/sJJPg6aAeHBsDhwgT6TpfxtOneAiYNWQHgAEgLCA5AQEB6AhGgtPABgeoDwACQEhAcgISA8AAkRR3j9t8XxZ4YBGDZxM7wUfxPdHdjfPQcAKCKX9Nvo7r05eri6jYkBAPoGwgOQEN0Lb54S69y6CgCYPBAegISILPx2Wl7dRHR/M91gYgCAfokuvOTEFnoovqa7t4WWuTgAoBeiC39jHaIDMFS6n8MDAHqjv0W7wsMkAQBd0L3w+m+uTcNz3AGYNXop6eXjniE8AJ0TV3i9Ol95A43J8PgeHoDOiSO8dbecP7uP/uiD+cMOAIBuiVzSAwCGDIQHICEgPAAJAeEBSAgID0BCQHgAEgLCA5AQEB6AhIDwACQEhAcgISA8AAkB4QFICAgPQEJAeAASAsIDkBAQHoCEgPAAJASEByAhIDwACQHhAUgICA9AQkB4ABICwgOQEBAegISA8AAkBIQHICEgPAAJAeEBSAgID0BCQHgAEgLCA5AQ0YV//J0f6Pe3fhxx8RrbbhCcP0qXvn17xPV5pt08nbXbfHuUFkptytxYnyNa38rGqjj+8R268cUFmmdiPuQ+t+/QZ+8eKsZObKGH9zfTDXtblzy5SC+eepOefZKJ5eylhVPnaGE3F2vJ7mN0vPb4RZ54/s1sn3N0/PBeNj7txBX+xPeZ5D/Qnv1MbNA8Q6+u+4QfsfOTN4KEX17dRNRQtKjCZ8iBpyfpnz5cL44U7OVFeoKJtQbCl4gq/I6LA8/oXiIKv7I5E2wT3T3BxAJoInw12+juvWbVRjtCMvcuevblc/Ti87uYWAQaCD/rRBT+A9qzmrrwW+nB/Tl6uLqNiYURX/gMWdrP0YMVJjYhgjK3FPIYPc3FYgDhS3QmfJ79Zdmf/S5pUf4fPUjL9tyakVUJarVZP0g7nTaKSMLL7F5dPs+/e1uW3zkfv1WIS+HFtpOfW+1u07kDVj8HLtBndh+aCyetNg6ytL+3hZaZmGDf0k3a2NigtaVFNj4eYZk7pOSvRAqd9WFwB5h8QFHVhmlXPK9ijG8zO7QWvrRIV2AktBRebFu9Q4/LffUAkb8eA73YtvzJM4VtZ88X2xTiZvGNlTqO8HVSqbn253Q83/YWXRCyWhndzMdL26qyvh4AqoSvG4yiCh+SWeWCXvPFOjXXto+hBplCxZAPCFa72nNTAwCEryUgwztyq8Hie9phbaunStxqFq77snwM4dVc2VvO+6SUmXyUwVm55b5Oli/Fa4TvsKyf/GKdR0p3EGHlrqs+IHwgHQmvS/lCNmfREovBwWZiwtfM36XYdnY3qCxvZOWzebFNiSEJH5S5W0rl/brPkdmTzasHJAgfyJCEN7IX5ew1w7cRvk7oYOGbf3sQSieLda2E16U/hG9LtyV9cX7uwreZrPA1c3iflCElvdOmRIjwAQuK7akrlxWtF+talfR1QkP4QCIKrz/Avg+5Es/J8oVFu7LAUvaJlvQZld/BH6JzX4j3xCzaWSv1ZeHLbUoECB+6Sr9x5QwbDyIkc3uz83jIQaPQj87cdnXBCK/2qzpHCB9IROFlRvMLL6m7LJb52k4KawlvBo4yb9CrRz39WJSrDDWPr7rIRQot35vCvTqu9LUd06ZEnfAh8/fTV5XwG1fpFBcPYPKLdUXUSr0QWOMeW2f8QpvaY0N4MA4tr7RrhBTeNziGXmm3SEtrLYR3y2mWaZBJnWPTrwuHDoSfAOr69clJf/zjotz8yr5CnUvA3F1n+Kbfw3eyWDcBxHnbcquqYVjnGBMIPyGkaBO7fl3P6w0e2VUpXyP7wgqtyVJ+gy6fZuIzj577i3JfMruyCyA8AAkB4QFICAgPQEJAeAASAsIDkBAQHoCEgPAAJASEByAhoguvro//cYTn2vrpodljqoNoegdb3d1zDPk1+qWbcNSlt10+765I2KWs7e+w8xB0SbBDfo3+9F2kE1f4qX1MdRi1d8uNQ5sHUkQVPkMOPP1IH3RJbqQ77FggfHPkHXFTn9H9xBO+5dNtGwhfR5tn6Tcn7P75oEGhKU2En2IiCl99e+wsEEv4unvTa5mA8L08vz7oZpoJ370G4ZsScD+8iEV5TLV5hNWI4r3pKi62Fe95L8oqH4oh7qMv3Ftv3QvvwAuvz4V5sAbfXmX3yvI5fx6A5+YYGRcP0ijeRFO8b965wYZt41B3a6+5Z77NQzIsgublre+wUwPG6OYYZ2qQTxecm2ic81IPznCYVNUxQVoLX1qkKzCZx1QvXHek1MKedZ94IwTORSyLmT8Fx5JSbeOzuDfDy+O7A8Vo0Cm0rZFKzbXt7M08KScfEKx2tVlfDQDVD9OoGYxiCh+UWbWETRfr9DHsKYO6/dU6rm7Dbas6NzkApCj8iIhPvBkb9xl2nqzriMnKXfGQTH9Jzzw6mx0E9FzZW857pHSfaMPKrQYGv9AhwndX1nexWMdL6QwiHrnrqg8I36XwnsdOlYT3PPbKyCyFL5Xi/odk+oUvx/LpgtVGUDl/9z65xpHZk83lgzC8z74bkvBhT75pJ5V/QbAw2HiErxuQIHxXwhvZCzJ5MjwrvJPhPcKPl+EzCoOJ6KOc3QWVGb6V8Lr0jyB8m7+NF0Qni3XthK8TGsJ3JTxbKgcKL/d1srArvDMo2FQKn5FndXEcJrtLKufwbUr6OqFDhA9YUIyAlGXii3U+KUNK+vq1AwgfU3j9AWcXoZyy3MheW9Lr/exSvSy87ssja53wakBR58JVCIrq7+DVU23t960zt71Szwiv9uP+0IUhQPjQVfq1FdrHxUMImpf7s/NYyEGDW7Szjs8IX2rDAOFjCi8/0B7hM5R4SiwllxK8JLzVRrUr9iOFd9rYA4JEDxRuO7atOW5pmlCk7sGSdX9hdjQgWviea5dTJ3zA/D1//t1NWlpg4gHUzY0lQYNCIFro/Ku0UtXgfm3HtSkD4QeFp6R34OfwbXAHHh8tr7RrhBLe9+z60CvtTl1pI3wXi3XdIM+xbloyQCB8ROHH6k9fvz4p6UWVYMutqgZPya/PpXbubjJ80+/hh3BlXRNElWDLzUwDpgUI31r40RrC2H1J0SZ1/bqe++dlv29+r0r5atnP0GVZykf6+/FTiJrXm5J/OmUXzKjwAAAOCA9AQkB4ABICwgOQEBAegISA8AAkBIQHICEgPAAJEV149zr3uotfqvHcrhnyd88nSdC13l1cMWauA4903blmWq8TB/XEFd7zlJemVD0sou4GlEkSch110E0irYHwYDyiCi8vVW2V0UfU38zR1dNZXEIyd6TbO3sCws8uEYUPu349iNA/0tDmjzk0JChzR3h4Q59A+NmlM+Hz7G89JMJX/lc/6LFI3TPe9y3djHjTR1jmDin5OSoHk8IgYkp5AzO45OsM+uktpi13XvpBEQXc83Db2PHKNY0u1jJAKK2FLy3SFRgJLYUX2/I7yvQAUbrDbMxSveaOs6jCyw99zXy5xa2T6o4svjLwDQbeffR5CDnzc9HS2uem9i++JzfDl9uYQUQft+o9Vw4GoGu6zfCO3Pwjo8Z8rlqHZX1I5vaJGQSTxY1EvmPXCV+UUPU5qlDc14qi8HybYv8V51p4T6Bvhif8uAJ3JXxVFsvxyBGKnQ1NCa3FERJx/bYS3j5e3sYR3tOmOL2xf1fHyM9JvI+mAyCIzoxk+IoHL0YiKHO3zmajTCmOt7BbvBb9+dcOhiG8ldVF++yneG3eB4QfDgMUPu4cPg5+4WzyDz0TC0MdZ2G3+KkkVuKMBgJ3n/bCu23UOYwkdfYxOPvK88jeuxqosm1i8NPit/s3ATEZoPDhD1QUhK7St/p7aCGZ25sJx0MI8uLLSh65TZbEb3r7biV8SW79OmtjZ2UpbeH47n4Z+XmacxHHyl5n7eoGStAdgxTezMtrH/AYMn83z1LfuEqnuHgAIVkqVumqBLZFVZIWpNYySzEdqrM3l61N/wrRnnsv5rxy3H8Pc07WdjVQuOcA+iSi8HGJd6XdIi2ttRCeFceFEwmA4TFY4XOhPdIHX0uvM3zT7+GDMnfrxToAumHAwguU9I3ulsv/SsoGXT7NxAFIkIELDwCICYQHICEgPAAJAeEBSAgID0BCQHgAEgLCA5AQEB6AhIDwACQEhAcgISA8AAkB4QFIhu30/w3O6u6p8nvQAAAAAElFTkSuQmCC;" vertex="1" parent="1">
                    <mxGeometry x="120" y="590" width="252" height="285" as="geometry"/>
                </mxCell>
                <mxCell id="6" value="" style="shape=image;verticalLabelPosition=bottom;labelBackgroundColor=default;verticalAlign=top;aspect=fixed;imageAspect=0;image=data:image/png,iVBORw0KGgoAAAANSUhEUgAAAQUAAAEdCAYAAAAFE3JnAAAAAXNSR0IArs4c6QAAAARnQU1BAACxjwv8YQUAAAAJcEhZcwAADsMAAA7DAcdvqGQAABxYSURBVHhe7d3vjxRVugfw+Rd4twnveLHhhRE1xOsK4ccSzQoouhMduAkbFRZWVhlIZI0hBJaYC+MoyeJq0MWr2VEn7GTAEOKszgtu3JuQ4CY3JmZJNiZrYnxt2H/guXV+VZ/n1FNVp7uruqq6vy8+ga5zqrqG5vnWOae7a6bW37ORAAAchAIAMAgFAGAQCgDAIBQAgEEoAACDUAAABqEAAAxCAQCY2kPh3tc+p2c++7Ln0lmxX6u8tGjO9cq7dK/U3pQzB+jS317tWXmatkj9Ii2tTBGtrA+2b6Bbt6fo23l/27DMMelO4vY6mhP7QFvUGwq6uD6nTU8JbU2IPZ82hsKBp2kuCYKTZ4S2AcwtrEmKdC0tCW3r59fqAq4qGHT4IAw6o9ZQ2HipZSODtoVUH7a8fXTokUFKF/0aunVEaLMKQ6Mv6+nbCgMG6ldjKByiTVcQClWZXhx+umCYIr27sEFo89khf2Z60S+EQtc0Fgp6FBEMz836wyJtdNt0EavHZ2mHty6x+7VD6T6pp96l3V4f/3n1c/ltPv8c3LTByQ00fj6ZoNHnorbZf4PS45UrDAW91nCApu/ZSSe9NYe5t7dm++pRQuQIIGJEUQ6h0DWVh0JmYZHpFU98KPD9TJ+gCG0/FhbJth0veX3SfsG+ooJAs+HjP5f7mdPn8wIq3WbPMXNORcKFxUC6vpD2O0ovHDDb9HTDe+z0N7+voqARCl3TgZFCUMS24HrFZa/aMVfhCkJBOu9M/8w5KuY8xVFOhPKRQhAA4sKkmRKUTx2cCqYQ/YxMoBW6HwpiAeYYOhTMdqmw9bm7n6e1oRC7nuAMEQr2HYzh1yRg1BAKonENhcFGCvH9BZWsS8Aojc30IarYhg6Frk8fsKYA5RoLhTAAzOOkf9+h0NuXFWGyLy/KhN23vDALzl2fEz+GeX7vPFscCn1dufHuw0RqLBTS9qRQNNVPF1z/odDrGxzPb8/r5131e8EUks+h1+6ds9feylCwRVo+169gkVFDKHRNjaEArRUxAsAnGicXQmFC6bWFvGCw7xxUU8h2xIHvPnQGQmGCje5bknbKoiAcWg+hAAAMQgEAGIQCADAIBQBgKg+FTdt+Qffc95DYBgDth1AAAAahAAAMQgEAGIRC2x35mp679mPPxU/kfhUxd2x6NSXe0q1Gr+/7B/1z35tiW5F3Z07Qd89P00mhLesx+vLFpP+Lv6VPH5TaY7xEn/z6H/TXn0tt3YZQ6IzztGOh/lDoMfd7HGUoHH787/TPYyv0utC2ftuzhUU8+lBI/HwlOd/xCwaEQmeMeSjoAvs7ffIfQptSaShUpzDIOgqh0BnjHApv0l+TK+7/Pf6S0Ga1NBTcNGKQKU9bTVgo2MJK5+hf08Nhn3AOv3CT7s+0q/0+oT1ev72nz/PjZJ4rER4rcf/p73mf3KIvC4Xw+b6nHXukfrFKQkHfw6G39iDe68He04H109Tt6L1+epQgX211seuhvsALAd1v5jEbHq7Ps/Sud6zetCGv3dlCnz7v90sUBU7ZKOfY+7S6ukqrl0/I7S0zQaFgi5gVZrLNKzJToH4xuULzwiMNjV6/7H4b6eGL4XNl6T4smKRzdIpCwezHgkmf5zDBkB8K2dvHb6UXVoJit4Hg769vFBMGQkIvLv56kQ4H25mYkQIrXlvYOcV8ctdvk/5yKPQ/6jAjndy1BYRCO0MhW4AhobCUPTdpb7J9j7vvgFRsYZ/Sq3ois4+VW8z5x9ShlAkS0z87gomVFwo528M7PUl3g5K22eF34dRBGWD6UFT4+W02TNSoI9OWZ7ymEBMSCrFFml+MaXFFhUIiHVEkpCu/bpdCyoRTJiwKfgYTeDmKfuZCRcUfFrZiRgtp/7yRQmaaEbGeoIwsFBL+FCRqxIBQKIRQCNg2U6ThNKTCUCiZqvRvyFCw+xeuJWhtGyl4Hpymb1w4FPaN/Bk6YrKmD4WFU+X0QRD2ydtHOr6WHwpmTaNoajSI4aYP/fyW7MrWFKoOBceGw5fbhDatZE2hYyYmFNIrNiuqJAi8x2YY7hekLUQ/TAYNhcx+9tismE0wySOa/FBI94saLbxCF67fpKXEhReldicvFNyCobDQ6IWAWYyURgaCstV7xRbmN7u2iO21hkJJIEW/+7A8T09I7S0zOaGg2eJJZa+upW8RRoVC+DyKdPXPrgeEI5XM+aTC40U+55MX6IOCUDAFL+EFHn4c+tLiTnac3jsSWdnbzpsrbemc3J/rK14IRIUCmw5wvbAJ37ZUCgIhZj1hep6WVSisXqVz00J7y0xYKMCo5P2eiry3JaNGCy0U+4nG2csIBbENJkV2OlG83dBrC10KBh1kEWsJbqSAzynI7TAppHcfEplpBqeDoRNv7ZlpQ3EgnKD39LRhlZbPzQjt7YRQAAAGoQAADEIBAJjKQwEAug2hAAAMQgEAGIQCADD1hML8WvNrxxPV/kpzAKhbvSMFHQ5r6FbRF4UAoFVqnj5soFu3p+juwgahDQDaCKEAAEzzodCxm1oCjDuEAgAwNYfCRppbWEN0Zy0tCW0A0D61h4J2ZB3dVW9R3l5Hc1I7ALRG7aGwtIIwAOiS5tcUAKBV2rPQ2JE73QKMu+ZDoWN3ugUYd62YPnTpTrcA467eULDvOhR+Kapjd7oFGHf1hIL3Lcn8UUI373QLMO5qnj4AQNcgFACAQSgAAINQAAAGoQAADEIBABiEAgAwCAUAYGoPhS1vH+3rV5EXy/nYtP7kZIM3cnlwhvbPHqdHHxTaUrtoevYUTW+X2iJsP0SHk/0PH5yhB6T2gZhz2v/4NqENJlW9oXDmQBIER+mFA0LbAIruzaDbGgqGzfuSYt23S2xzHnj8+HAFjVCAEak1FKYXhx0Z9JTf1s2MImhlvdBWp5gRwDZ69GAbiw+hAFk1hsJWemGlolCI+WKVEtuvQlEjAH2VP0SbpbZGIRQgq7FQSEcReoqR/F2Tpxp6lBB5S7ey2789ce5qhV/CihsBSNOLoikHCxo3bXCkfdLQMUXu+krnpZ/X6yP108/v9/GeszAEWxt+0I/KQyGzsMj0il6Hgtq28jRt0fvaEEkfO31OC/Q3NPOnGZWGgi6CkgVGvQiZnV7o4swpLjkwTADlh4Iq4N65mML2z83uz54zO1IwoeEXtg0au585rlz4hYEBndHsSCEIABMoB2ja27b+nvX0bT9TghFOIYqu9k5eobDt7N2LvNFHWSgE4RSGkRhgQSjkBBjbV//dhYLZ3/WP+feA9mt/KPRb5KMKhbwCYrJX4pRXXObq6/qZ4s8ed7hQkMMpOD9W8Nl++lh+gOn+vXNSoSD+rNApYzpSqP83XUcNlXOLLOEV1+Z9yZ/bk8f6ePzq29OSUPD+ro45vV09VvvkjXCgazoQCtWuKVQjrgCKh9OqmFQhJ3/qYlXHtOEQFrhWQSiEBW/7pD9HsE+KHd+cx/R29ac5nvo5TTgI+0LndCAU+vvVc7HvPgx1T8iiEYDjjQTEdhcsSRC4ojRX8+SxeOzhQiEvAHrTFtXPPgd7flPs/vPqaUJynuk29fz6vIt+XuiKToSCWycouyt01HqC+z0Tq+/TrNQeIWZBLWZ6oY/jF5IrVG8/c4VX/ULefjGhkPZz+6vCt8EUjHjMefWE7e6cese2wVEWlNAJNYZCtar7ROMMnVseIhSkYsswRRIWE0AXdCYU0qLPCYbo7z7YkcKgn1OIGQFETS8AWqpDoaCYYBjoW5Lpb6JapfeOCe0AoHUsFACgbggFAGAQCgDAIBQAgEEoAACDUAAABqEAAAxCAQAYhAIAMAgFAGAQCgDAIBQAgEEoAACDUAAABqEAAAxCAQAYhAIAMAgFAGAQCgDAIBQAgEEoAACDUAAABqEAAAxCAQAYhAIAMAgFAGAQCgDAIBQAgEEoAACDUAAABqEAAAxCoQ57btLeaz/SniNCWx67z3PXvqaHpfYmzK8lujOlfTsvtMNYmqxQeGmRnvnsc9r0lNBWpXEIhSPr6C7CYCIhFOowSCi0zNzCGqLb62hOaIPxhlCoA0IBOqzGUDhEm658mRShs0gbwz66SL0+V96lezPtar+ztMPrt/u1Q/w4medKeMfaeClo84XPGeUT2qOH+s73tGOP165DQW07TzsWvH4XP/GOsZEevui1OQs36X6vT1MQCpOrplCwRcwKLtl26Wza597XPk+K0r9qu8L2wiMNjV6/7H626GOKu4qRgh0F7D19Pt12/+nvdUGnI4N0fSC7rWj0oEMCoQANqyUUzJVZGBmkTGhkrvhPvUu7k+07XrKPpSIO+7gw8QInVwWhIBeuHRG4kUBOAOh9g9GCb9BQOLnrt/TdiydkM4+J+xTbQLduT9HdhQ1CG4y7GkIhokh1YUvFafZNwyIqFBLpiKJkxDB0KJji90cJjh4tuILOCQXWR9D8SMGEAd1ZQ7cKRjQw3sYjFII2ExB5axjNhUJZ0TcfCo4Nh5X1QhuMu/qmD4Vz/CqnD4K8PkOHQl7hxkwfgj6C9kwfsKYwyepZaHRXbDZa4AuNZt3BL1A7wvDDZNBQyCt+u2/23Ys+HPlaLyBmFxq9dyCEUMj0EbRnpIBQmGT1hIJm34FIZYfz5p0Er0845YgKhfB5lILRgD6m1zfmXYuQLfr0bcTMpxDDtyylPlkIBWiDGkMB+qVDoWB6MUoIhcmFUGiKGm34AZCzONkY+2UofPdh8iAUGmTWGXpTjNYEgqVHC/iW5MRBKAAAg1AAAAahAAAMQgEAmMpDYdO2X9A99z0ktgFA+yEUQPvhf06K22HyIBQmiCr8kN/m983bBuMPoTDBhgkF1dYv6TjQPgiFsbKVbtxQBXiQLovtnF+oYdGOsogvf6TO+RjdeF5uh9FCKIyVakJhlIGgIBTaBaEwVspDQRW8z9/u/zlKCIV2QSiMGV1gN56hU0Kbklf0TYSBc+qtY8nzx41uoH4TEgozdG55lZbPzdAT567S6uqq9T7Nhn2Pve+1h31O0HvJtveOmT9V+3vHNtLsZfN3dXz/WG67o/r67c7O31+npes36YPf7xXbqxQWv3ocw9+n330VaX9op4kKBV2cl0/Ybbaw08eJ6Xla9h+7/Zbn6Ql/n9WrdG7aFP3y8lUvbFyA2P3CY+cEQ5OhEG5HAcNkhQIreHslTwtexoudB4kZCZg21k+PNvwRhqH7B+cwau7K7fjbpb/D5EEoBKFgCj3EQ8FNE/z9/VAwfw+PYZWE0CghFECCUPCK1ASCmRq4PtJIIS4UsiOFtikKAgTD5EIopKEg9xkkFMz0gYdLG5WNDhAMkwmhEI4UvMem0JNt/YaCe77I0cIoFxp9UiiEQZAXFoMKjxXr8B9vNvJvNIkQCl4IpAuJjmpji4axoaC4YODa8u5DWKBFRTtMMVfF/RstXf+QDgvtUJ0JCQXwSUXehsIv9gpdUKHw8QXaKbZDVRAK0AlupHDhRbkdqoNQgHZ78gJ9oKcN1+nUk0I7VA6hAAAMQgEAGIQCADCVhwIAdBtCAQAYhAIAMAgFAGDqCYX5tfgV5gAdVe9IQYfDGrp1RGgDgFaqefqwgW7dnqK7CxuENgBoI4QCADDNh4K7e3LwtWYAaAZCAQCYmkNhI80trCG6s5aWhDYAaJ/aQ0E7so7uqrcob6+jOakdAFqj9lBYWkEYAHRJ82sKANAq7VloZDdQBYCmNB8K9ncsduH3JABMglZMH/St0hEKAK1QbyjYdx0KvxTlRgr4nAJAK9QTCt63JPNHCb1fvOJ+uQoANK/m6QMAdA1CAQAYhAIAMAgFAGAQCgDAIBQAgEEoAACDUAAABqEAAAxCAQAYhAIAMAgFAGAQCgDAIBQAgEEoAACDUAAABqEAAAxCAQAYhAIAMAgFAGAQCgDAIBQAgEEoAACDUAAABqEAAAxCAQAYhAIAMFMPbdlJAAAOQgEAGIQCADAIBQBgagmFza9/Qc989mVqz+svi/0mw2/o7OJNWrre84cTUr/22fpfP9Bz137seeea2G9gs8/RG397lU6fF9oEO/90nC4l/S/9ZZ/YPpCIc7j+xRTRFz8T24rMXkpe78V36BmhLY/eJ/k/8uH53/C2391H/77zU7rub6tJzSOFN+ixoUPhZXpkKQmXy28Ibe03yH+MVnj5myQIfqDd+4W2qnQgFC5e+QnRgMVYaSgkdDiNIBgQCrU6S3/o0MjA98g7NYwMQn2GQi2KzuGtnyZF+BP66ndCW4TqLwg76KuvBhu19AOhUKf979CHnQyFP9LujyY9FH5G/7ozRf++siPYHq+WUaKeRkzRv94S2irSbCj86gPak7Sn6w9LH9DmvLbAY694xyll5vVqSPbM+Rve/P5jmg372kJO+/gvqm67QWfFIbUwKigMhT7OaeSKQyEdRegpRvJ3bYCphi7I43Rs9pd07PNkWpAUpzQ9SKcN1ht/+iVrV/b/xe53/ojXVx2b93toS/BcViYU9CiheKjOX7fEpbOsXYeC2nbiY69f8P8n/P9mFV1I9DTiq/vootCm/Oebn9Lq6ipde/Ow2F6muVB4ZSkp7i/okV/1tm27nBS8HwxaFSMFb7EvfeFMEbMXUr94/EVjaV9U5GlgZBcWmTRkIs9phDILi0yv6HUoqG0f/S9t1fvaEEkfR7JXaVaUhaOHfXQ6acsNBXWsz5+jnXqbLf70sWL2Z6GT83xlhWfm/n6A29fOu4iYPsI2/0ITKryQWCWB1dFQMIWe2a5HBzwoKg2FoNj4C9S7cvt9esWuHvPRgN7fHVMHSnCVL3yBY84pzmtPH6XvXjwh279X3KdYxEghCAATKN/QI962UjkFmV71vW1GSSiwAHAjjCO0P+exJp6DmbvnTh3yXtfgoiK+luz/kyAmFGqeQjQUCma7NC1Q+NRgVKFgkz6HeZH84HD9bRCo/xDif4D6Q6F6zYaCLt6gwI3hQkEMG/EcStYTpAuAJlw0Mq8l75Mx6aEgTisyRhsK0ltBPr2POo568ZI/1WP1Aur5JUKhupFCo6FQMlIYJhTKij46FAZ/V6RMo9OHuEIf7fQh7BPSxZ/0UX/qF079B7HhkNl3RKEwXtMHuxZQw/RBDBu7MBkGU+GaQt7rGjN9CPpkxIRCxCLoMBpeaIwbLegFyM+WaJvQFieyAPULVjJaUH0WbyQvnLtSqKtD8jg5vrweUX8oVK/CULD/BmIhCKFgCll610AZLhQyAeC9UxGGQvFnFOxrx0YLZpTgv57Z1zLbJyMiFGLffVj98IzYXqaWUDBFLAkK2wYDk3n3QbGjBa/fIG9JRhWgDQbG7+P+k4cvfrIt80IiFLx/T+nqaIrcFaYRLAQmdMFn+inFo4BMKKTb7P66vzmHTCjYdYWiDwq5190JLwqZtyyFPhlloRCznvDqn00orP6ZXpHaS9Q8UgDosCE/0TgQHQp504vYTzQepjevIRQAamG+b1BfMMxe4gFQNFI05xKxlmBHCi39nAJA9+lirO37BnadwcmbOuppQ0kgPPsWXdPThlX671eF9kgIBQBgEAoAwCAUAIBBKAAAg9/7AAAMQgEAGIQCADAIBQBgxiwUttILK+5z8cbJM1K/SEfW0d07a+jWkWD7/Fqi2+tozt82Qg88fpwOH5yhB4S21IMztH/2OD36oNA2pM37TpU/f0DvM3uK9j++TWyH9hirUJheTIJg5WnaIrT1bz19e2eK7i5sENo20K3bUw0Fwy6aToprervU1qOLcN8usW1YCIXxNkahsJNODjsySNmiX1kvtDlFoVGj7YeS4jpEm6W2VFxwDGqQUIDuGJ9QOPA0zVUUCnMLa4jurKUloY1R0whpelGbbfTowfKrbdT0YggIhfFWQyiYef3c21tpy9tHvfn9AZoO+9pCTvv4Q3/ddpReOOD1TwmjgsJQ6OOc7CghbgRQNqKYoXPL6gsqV+nctNTep6h1grjgKKJDJRlppIJpSDo10aMW1y84L32urq2nrtELVKe2UNBFt7jTbjNF3HucOHMg6cOLnq0JFBV5GhjZhUUmDZnIc1L04uIUfTvvbSugRxW5awvVhkLUFVoX6uALjGbu709PzFTEf17TR9hWdG42JBAK7VdfKATFxhcBe1duvw8fHfDRgN7fHVMHSnCVjxgpFJ+TpacEEVMHZ2RTiBEsMOYVbhA0YgCUjWIQCp3RUCjYq3QOU9h+cLj+NghUKITFXFEoRK8nOCMKBTOkL1lgHLbwchcxeSDJo4KS0EIodEajoZAZKQTS0YEq+ORP9VgVvV4XqCkUBhsp9NF/ICNaYBwmFMqKHqHQGY1OH8I+IV38SR/1py52NUKw4ZDZt6pQqHRNoSK6oOpfYMwt3JjpQ9laBkKhMxoKhYReFygZLehpwtGk2N36gRphJI+T48vrERWEQtRnFJzYdx9W6b1jUnucqHWC3Kt8P0ywiAuN3vNnQyHbJwOh0BnNhYJig4Hx+9hC94+lj5NsyxR/ZaHg1hUi1gki1hNmL5tQWL18QmwvVzJXt6KCI5I+lipyKxx9ZN6yFPpkIBQ6o4ZQGAcVfqJxep6WhwiFkSwwjoI+x7IpELQBQiGPXVuQg8GGRsRaghkpDPo5hXZ8gnEQm/fxABDXIaCVEApFhviW5BPnrpppw+r7NCu0jz+7zuAgEDoDoQAADEIBABiEAgAwCAUAYBAKAMAgFACAQSgAAINQAACm9lDgtz/Lfv+gP+aThJmPFusPGdX99eUCUR/hjfsOw3DcB4aq/TgxPo04WeoNBf2Fp7z7LPZvaSX/o8W6raFgiPky0mg+ioxQgOHVGgr6W4hDjQx6yu+I1M9XnqsUMwKo4F4HDUIoTJYaQ0H+uvJAYm980ucNUqoQNQKo5F4HzUEoTJbGQiEdRbB7KshTjX7ublQ0xVDcF5WWz82I7f2JGwHETC8khYHDgib48pEUQOm6h7uRiiWdlz6210cJzyPs47cXrrGMYm0FhlF5KGQWFple0bubpfRucmJDZKg7ISVK7plYaSjowiiZvw9xr4OieynkBUbuPvY8VAGn52IL2z83sz//mcKRQrZPcMemop+5MDCgDZodKQQBYAIl/AUt5mYm0VOCEU4hYkYAecUbRRgNuELLe+6yUOCFao7ZG+mEjw0eCnIffvyCc2U/E7RR+0Oh3yIfVSgUXQ1TOQUUy7+quuG6LS5VaNJxhwoF//nSPkEo5PThUyn/7+Y50nNSP8egIQkjMaYjhRH9Hoay/9xDXxV7V1z1fNPb1WN1vPy1jHaEgjc6UP2TP9Vj93MgFNqtA6FQ7ZpCNfKL0pcWhtAWxzzP9Hb1pyl0U1y9sAj3GT4Uwj7mHHqFHOzjBPvq80h+dhNmyTYVkDYchvs3gbp1IBT6+61Nse8+DH535UTMCCD3itofVUT7D5oC09v08Pt47rGHCoVMANjHSR//6q4Lmz1/uF8iPU93Luq5ksdJv7IwhWZ1IhTcOkHpnZNj1hOOvT/0vRNjrnZVDZNNkfvFbAqZFb4teF28geJRgHTVd8c3VH/pZ3HnlQr/Pdw5edtNmITnAG1TYyhUq7pPNLpf0DJgKIjFFZKKDaAbOhMKadHnBEP0dx/sSGHQzylEjQCGXmAEaE6HQkExwTDQtyTdL2VJDPMr3ADGXcdCAQDqhlAAAAahAAAMQgEAGIQCADAIBQBgEAoAwCAUAIBBKAAAg1AAAM9G+n8ke3W/GyZoogAAAABJRU5ErkJggg==;" vertex="1" parent="1">
                    <mxGeometry x="460" y="590" width="261" height="285" as="geometry"/>
                </mxCell>
            </root>
        </mxGraphModel>
    </diagram>
</mxfile>